<?xml version="1.0" encoding="utf-8"?>
<!-- Generator: Adobe Illustrator 21.0.2, SVG Export Plug-In . SVG Version: 6.00 Build 0)  -->
<svg version="1.1" id="Layer_1" xmlns="http://www.w3.org/2000/svg" xmlns:xlink="http://www.w3.org/1999/xlink" x="0px" y="0px"
	 viewBox="0 0 82 82" style="enable-background:new 0 0 82 82;" xml:space="preserve">
<style type="text/css">
	.st0{fill:#00265F;}
	.st1{fill:#002A69;}
</style>
<title>Group 13</title>
<desc>Created with Sketch.</desc>
<g id="_x31_.01-Landing" transform="translate(-229.000000, -2698.000000)">
	<g id="Group-13" transform="translate(114.000000, 0.000000)">
		<circle id="Oval-3" class="st0" cx="156" cy="2699" r="1"/>
		<circle id="Oval-3_1_" class="st0" cx="156" cy="2779" r="1"/>
		<circle id="Oval-3_2_" class="st0" cx="156" cy="2699" r="1"/>
		<circle id="Oval-3_3_" class="st0" cx="156" cy="2779" r="1"/>
		
			<ellipse id="Oval-3_4_" transform="matrix(0.2588 -0.9659 0.9659 0.2588 -2485.0527 2162.1421)" class="st0" cx="166.4" cy="2700.4" rx="1" ry="1"/>
		
			<ellipse id="Oval-3_5_" transform="matrix(0.2588 -0.9659 0.9659 0.2588 -2575.0403 2199.416)" class="st0" cx="145.6" cy="2777.6" rx="1" ry="1"/>
		
			<ellipse id="Oval-3_6_" transform="matrix(0.5 -0.866 0.866 0.5 -2254.0435 1504.6)" class="st0" cx="176" cy="2704.4" rx="1" ry="1"/>
		
			<ellipse id="Oval-3_7_" transform="matrix(0.5 -0.866 0.866 0.5 -2334.0435 1504.6)" class="st0" cx="136" cy="2773.6" rx="1" ry="1"/>
		
			<ellipse id="Oval-3_8_" transform="matrix(0.7071 -0.7071 0.7071 0.7071 -1862.7899 924.2589)" class="st0" cx="184.3" cy="2710.7" rx="1" ry="1"/>
		
			<ellipse id="Oval-3_9_" transform="matrix(0.7071 -0.7071 0.7071 0.7071 -1919.3584 900.8275)" class="st0" cx="127.7" cy="2767.3" rx="1" ry="1"/>
		
			<ellipse id="Oval-3_10_" transform="matrix(0.866 -0.5 0.5 0.866 -1333.959 459.5974)" class="st0" cx="190.6" cy="2719" rx="1" ry="1"/>
		
			<ellipse id="Oval-3_11_" transform="matrix(0.866 -0.5 0.5 0.866 -1363.241 430.3154)" class="st0" cx="121.4" cy="2759" rx="1" ry="1"/>
		
			<ellipse id="Oval-3_12_" transform="matrix(0.9659 -0.2588 0.2588 0.9659 -699.5938 143.3522)" class="st0" cx="194.6" cy="2728.6" rx="1" ry="1"/>
		
			<ellipse id="Oval-3_13_" transform="matrix(0.9659 -0.2588 0.2588 0.9659 -707.5858 124.0577)" class="st0" cx="117.4" cy="2749.4" rx="1" ry="1"/>
		<circle id="Oval-3_14_" class="st0" cx="196" cy="2739" r="1"/>
		<circle id="Oval-3_15_" class="st0" cx="116" cy="2739" r="1"/>
		<g id="noun_Lightning_1814652" transform="translate(29.000000, 26.600000)">
			<path id="Shape" class="st1" d="M127.5,2698c6.2,5.9,12.5,11.8,12.5,17.8c0,3.3-2.8,5.9-6.3,5.9c-2.9,0-4.4-1.2-5.8-3.7
				c1.4,5.1,3,7.7,5.8,7.7h-12.4c2.9,0,4.4-2.6,5.8-7.7c-1.4,2.5-3,3.7-5.8,3.7c-3.4,0-6.2-2.6-6.2-5.9
				C115,2709.8,121.2,2703.9,127.5,2698z"/>
		</g>
	</g>
</g>
</svg>
