<?xml version="1.0" encoding="utf-8"?>
<!-- Generator: Adobe Illustrator 20.1.0, SVG Export Plug-In . SVG Version: 6.00 Build 0)  -->
<svg version="1.1" id="Layer_1" xmlns="http://www.w3.org/2000/svg" xmlns:xlink="http://www.w3.org/1999/xlink" x="0px" y="0px"
	 viewBox="0 0 669 667" style="enable-background:new 0 0 669 667;" xml:space="preserve">
<style type="text/css">
	.st0{opacity:0.5;}
	.st1{filter:url(#b);}
	.st2{fill:none;stroke:#003585;}
	.st3{fill:#FFD770;}
</style>
<filter  height="127.2%" id="b" width="127.2%" x="-13.6%" y="-13.6%">
	<feMorphology  in="SourceAlpha" operator="dilate" radius="0.5" result="shadowSpreadOuter1"></feMorphology>
	<feOffset  dx="0" dy="0" in="shadowSpreadOuter1" result="shadowOffsetOuter1"></feOffset>
	<feGaussianBlur  in="shadowOffsetOuter1" result="shadowBlurOuter1" stdDeviation="25.5"></feGaussianBlur>
	<feComposite  in="shadowBlurOuter1" in2="SourceAlpha" operator="out" result="shadowBlurOuter1"></feComposite>
	<feColorMatrix  in="shadowBlurOuter1" type="matrix" values="0 0 0 0 0   0 0 0 0 0.17254902   0 0 0 0 0.431372549  0 0 0 0.8 0">
		</feColorMatrix>
</filter>
<g class="st0">
	<g transform="translate(51 50)">
		<g class="st1">
			<circle cx="283.5" cy="283.5" r="283.5"/>
		</g>
		<g>
			<path id="a_1_" class="st2" d="M283.5,0C126.9,0,0,126.9,0,283.5S126.9,567,283.5,567S567,440.1,567,283.5S440.1,0,283.5,0z"/>
		</g>
	</g>
	<g id="inner-dots" transform="translate(117.737799 116.737799)">
		<ellipse transform="matrix(0.9659 -0.2588 0.2588 0.9659 6.7995 55.8194)" class="st3" cx="215.4" cy="2.1" rx="1.4" ry="1.4"/>
		<ellipse transform="matrix(0.9659 -0.2588 0.2588 0.9659 -10.8955 58.149)" class="st3" cx="215.4" cy="70.5" rx="1" ry="1"/>
		<ellipse transform="matrix(0.9659 -0.2588 0.2588 0.9659 -86.63 68.1196)" class="st3" cx="215.4" cy="363.1" rx="1" ry="1"/>
		<circle class="st3" cx="253.4" cy="75" r="1"/>
		<circle class="st3" cx="177.9" cy="357.8" r="1"/>
		<ellipse transform="matrix(0.2588 -0.9659 0.9659 0.2588 127.6803 345.4129)" class="st3" cx="288.9" cy="89.5" rx="1" ry="1"/>
		<ellipse transform="matrix(0.2588 -0.9659 0.9659 0.2588 -225.5346 391.9122)" class="st3" cx="142.6" cy="342.9" rx="1" ry="1"/>
		<ellipse transform="matrix(0.5 -0.866 0.866 0.5 62.1683 333.0228)" class="st3" cx="319.5" cy="112.7" rx="1" ry="1"/>
		<ellipse transform="matrix(0.5 -0.866 0.866 0.5 -220.4631 257.4922)" class="st3" cx="112.8" cy="319.7" rx="1" ry="1"/>
		<ellipse transform="matrix(0.7071 -0.7071 0.7071 0.7071 -0.4983 284.3675)" class="st3" cx="343" cy="142.8" rx="1" ry="1"/>
		<ellipse transform="matrix(0.7071 -0.7071 0.7071 0.7071 -178.342 148.1775)" class="st3" cx="89.7" cy="289.4" rx="1" ry="1"/>
		<ellipse transform="matrix(0.866 -0.5 0.5 0.866 -41.3535 202.9982)" class="st3" cx="358.1" cy="178.7" rx="1" ry="1"/>
		<ellipse transform="matrix(0.866 -0.5 0.5 0.866 -116.9716 71.6259)" class="st3" cx="75.2" cy="254.1" rx="1" ry="1"/>
		<ellipse transform="matrix(0.9659 -0.2588 0.2588 0.9659 -43.7274 101.3821)" class="st3" cx="363.2" cy="216.8" rx="1" ry="1"/>
		<ellipse transform="matrix(0.9659 -0.2588 0.2588 0.9659 -53.6983 25.6451)" class="st3" cx="70.5" cy="216.8" rx="1" ry="1"/>
		<circle class="st3" cx="357.8" cy="255.5" r="1"/>
		<circle class="st3" cx="75.3" cy="179.4" r="1"/>
		<ellipse transform="matrix(0.2588 -0.9659 0.9659 0.2588 -26.4786 545.3246)" class="st3" cx="342.1" cy="289.9" rx="1" ry="1"/>
		<ellipse transform="matrix(0.2588 -0.9659 0.9659 0.2588 -72.8563 193.5489)" class="st3" cx="89.7" cy="144.2" rx="1" ry="1"/>
		<ellipse transform="matrix(0.5 -0.866 0.866 0.5 -117.8914 436.2411)" class="st3" cx="318.9" cy="320.2" rx="1" ry="1"/>
		<ellipse transform="matrix(0.5 -0.866 0.866 0.5 -42.2215 154.5845)" class="st3" cx="112.8" cy="113.9" rx="1" ry="1"/>
		<ellipse transform="matrix(0.7071 -0.7071 0.7071 0.7071 -158.3549 304.6344)" class="st3" cx="288.5" cy="343.5" rx="1" ry="1"/>
		<ellipse transform="matrix(0.7071 -0.7071 0.7071 0.7071 -22.21 127.4113)" class="st3" cx="142.7" cy="90.5" rx="1" ry="1"/>
		<ellipse transform="matrix(0.866 -0.5 0.5 0.866 -145.1117 174.6053)" class="st3" cx="253.3" cy="358.1" rx="1" ry="1"/>
		<ellipse transform="matrix(0.866 -0.5 0.5 0.866 -14.0742 98.9079)" class="st3" cx="177.5" cy="75.7" rx="1" ry="1"/>
		
			<ellipse transform="matrix(0.9659 -0.2588 0.2588 0.9659 -104.325 70.4492)" class="st3" cx="215.4" cy="431.4" rx="1.4" ry="1.4"/>
		<circle class="st3" cx="271" cy="9.4" r="1.4"/>
		<circle class="st3" cx="159.8" cy="424.1" r="1.4"/>
		
			<ellipse transform="matrix(0.2588 -0.9659 0.9659 0.2588 209.4073 334.5994)" class="st3" cx="322.7" cy="30.8" rx="1.4" ry="1.4"/>
		
			<ellipse transform="matrix(0.2588 -0.9659 0.9659 0.2588 -308.8665 402.8315)" class="st3" cx="108.1" cy="402.7" rx="1.4" ry="1.4"/>
		<ellipse transform="matrix(0.5 -0.866 0.866 0.5 127.337 350.4808)" class="st3" cx="367.2" cy="65" rx="1.4" ry="1.4"/>
		<ellipse transform="matrix(0.5 -0.866 0.866 0.5 -286.451 239.8722)" class="st3" cx="64.5" cy="368" rx="1.4" ry="1.4"/>
		
			<ellipse transform="matrix(0.7071 -0.7071 0.7071 0.7071 40.1663 315.8184)" class="st3" cx="401.3" cy="109.4" rx="1.4" ry="1.4"/>
		
			<ellipse transform="matrix(0.7071 -0.7071 0.7071 0.7071 -219.8971 116.4128)" class="st3" cx="30.6" cy="323.6" rx="1.4" ry="1.4"/>
		<ellipse transform="matrix(0.866 -0.5 0.5 0.866 -23.9614 232.9747)" class="st3" cx="422.8" cy="161.2" rx="1.4" ry="1.4"/>
		<ellipse transform="matrix(0.866 -0.5 0.5 0.866 -134.7308 41.0924)" class="st3" cx="9.3" cy="272" rx="1.4" ry="1.4"/>
		
			<ellipse transform="matrix(0.9659 -0.2588 0.2588 0.9659 -41.4479 118.6965)" class="st3" cx="430.1" cy="216.8" rx="1.4" ry="1.4"/>
		<ellipse transform="matrix(0.9659 -0.2588 0.2588 0.9659 -56.0312 7.9253)" class="st3" cx="2.1" cy="216.8" rx="1.4" ry="1.4"/>
		<circle class="st3" cx="422.8" cy="272.3" r="1.4"/>
		<circle class="st3" cx="9" cy="161.5" r="1.4"/>
		
			<ellipse transform="matrix(0.2588 -0.9659 0.9659 0.2588 -15.6136 627.8524)" class="st3" cx="401.3" cy="324.1" rx="1.4" ry="1.4"/>
		
			<ellipse transform="matrix(0.2588 -0.9659 0.9659 0.2588 -83.7283 110.4701)" class="st3" cx="30.1" cy="109.8" rx="1.4" ry="1.4"/>
		<ellipse transform="matrix(0.5 -0.866 0.866 0.5 -135.5864 502.2796)" class="st3" cx="367.2" cy="368.6" rx="1.4" ry="1.4"/>
		<ellipse transform="matrix(0.5 -0.866 0.866 0.5 -24.5847 88.0156)" class="st3" cx="63.9" cy="65.3" rx="1.4" ry="1.4"/>
		
			<ellipse transform="matrix(0.7071 -0.7071 0.7071 0.7071 -190.2094 346.148)" class="st3" cx="322.7" cy="402.7" rx="1.4" ry="1.4"/>
		<ellipse transform="matrix(0.7071 -0.7071 0.7071 0.7071 9.6088 85.7398)" class="st3" cx="108.3" cy="31.3" rx="1.4" ry="1.4"/>
		<ellipse transform="matrix(0.866 -0.5 0.5 0.866 -175.7603 192.3003)" class="st3" cx="271" cy="424.1" rx="1.4" ry="1.4"/>
		<ellipse transform="matrix(0.866 -0.5 0.5 0.866 16.713 81.1758)" class="st3" cx="159.8" cy="9.4" rx="1.4" ry="1.4"/>
	</g>
</g>
</svg>
