<?xml version="1.0" encoding="UTF-8"?>
<svg width="338px" height="335px" viewBox="0 0 338 335" version="1.1" xmlns="http://www.w3.org/2000/svg" xmlns:xlink="http://www.w3.org/1999/xlink">
    <!-- Generator: Sketch 50.2 (55047) - http://www.bohemiancoding.com/sketch -->
    <title>Group 5</title>
    <desc>Created with Sketch.</desc>
    <defs>
        <filter x="-3.5%" y="-1.5%" width="105.5%" height="104.3%" filterUnits="objectBoundingBox" id="filter-1">
            <feOffset dx="-2" dy="2" in="SourceAlpha" result="shadowOffsetOuter1"></feOffset>
            <feGaussianBlur stdDeviation="2" in="shadowOffsetOuter1" result="shadowBlurOuter1"></feGaussianBlur>
            <feColorMatrix values="0 0 0 0 0   0 0 0 0 0   0 0 0 0 0  0 0 0 0.1 0" type="matrix" in="shadowBlurOuter1" result="shadowMatrixOuter1"></feColorMatrix>
            <feMerge>
                <feMergeNode in="shadowMatrixOuter1"></feMergeNode>
                <feMergeNode in="SourceGraphic"></feMergeNode>
            </feMerge>
        </filter>
        <path d="M173.1792,1.3064 L9.3504,42.9632 C2.712,44.6552 -1.3056,51.404 0.3864,58.0472 L65.3592,313.5536 C66.7776,319.1336 71.772,322.8608 77.2704,322.9064 L77.4864,322.9064 C78.4608,322.8968 79.452,322.772 80.4408,322.5224 L244.2648,280.8632 C250.908,279.1712 254.9184,272.42 253.2336,265.7816 L188.2584,10.2728 C186.8304,4.6592 181.7832,0.92 176.2464,0.92 C175.236,0.92 174.2064,1.0448 173.1792,1.3064" id="path-2"></path>
        <filter x="-0.4%" y="-0.3%" width="100.8%" height="100.6%" filterUnits="objectBoundingBox" id="filter-3">
            <feGaussianBlur stdDeviation="0.5" in="SourceAlpha" result="shadowBlurInner1"></feGaussianBlur>
            <feOffset dx="1" dy="0" in="shadowBlurInner1" result="shadowOffsetInner1"></feOffset>
            <feComposite in="shadowOffsetInner1" in2="SourceAlpha" operator="arithmetic" k2="-1" k3="1" result="shadowInnerInner1"></feComposite>
            <feColorMatrix values="0 0 0 0 0.0955755585   0 0 0 0 0.277902308   0 0 0 0 0.551392432  0 0 0 1 0" type="matrix" in="shadowInnerInner1"></feColorMatrix>
        </filter>
        <path d="M6.76208,5.8592 L5.79968,14.6696 L11.68928,13.1696 L6.81968,5.8448 L6.76208,5.8592 Z M7.78448,21.8744 L8.07488,23.0168 L1.13168,24.7832 L0.84128,23.6408 L3.54848,22.952 L5.93168,1.2728 L7.06208,0.9896 L19.05008,19.0088 L21.87248,18.2936 L22.16528,19.4336 L13.39568,21.6632 L13.10528,20.5232 L16.07168,19.7696 L12.38528,14.2232 L5.65088,15.9344 L4.93328,22.6016 L7.78448,21.8744 Z" id="path-4"></path>
        <filter x="-9.4%" y="-4.2%" width="118.8%" height="116.8%" filterUnits="objectBoundingBox" id="filter-5">
            <feOffset dx="0" dy="1" in="SourceAlpha" result="shadowOffsetOuter1"></feOffset>
            <feGaussianBlur stdDeviation="0.5" in="shadowOffsetOuter1" result="shadowBlurOuter1"></feGaussianBlur>
            <feColorMatrix values="0 0 0 0 0.0941176471   0 0 0 0 0.278431373   0 0 0 0 0.552941176  0 0 0 1 0" type="matrix" in="shadowBlurOuter1"></feColorMatrix>
        </filter>
        <filter x="-11.7%" y="-6.3%" width="123.4%" height="121.0%" filterUnits="objectBoundingBox" id="filter-6">
            <feGaussianBlur stdDeviation="1" in="SourceAlpha" result="shadowBlurInner1"></feGaussianBlur>
            <feOffset dx="0" dy="1" in="shadowBlurInner1" result="shadowOffsetInner1"></feOffset>
            <feComposite in="shadowOffsetInner1" in2="SourceAlpha" operator="arithmetic" k2="-1" k3="1" result="shadowInnerInner1"></feComposite>
            <feColorMatrix values="0 0 0 0 0   0 0 0 0 0.141634779   0 0 0 0 0.354086947  0 0 0 1 0" type="matrix" in="shadowInnerInner1"></feColorMatrix>
        </filter>
        <path d="M14.75192,33.09608 C14.75192,33.09608 15.48152,28.68008 19.53512,27.55208 C23.87192,26.34488 27.90152,31.63448 25.02392,37.78328 C22.96232,42.19928 19.87592,45.53768 18.30392,47.06408 C16.18952,46.47368 11.88632,45.01688 7.95992,42.12488 C2.49752,38.09288 3.51032,31.52168 7.89992,30.51368 C12.00152,29.56568 14.75192,33.09608 14.75192,33.09608" id="path-7"></path>
        <filter x="-9.2%" y="-5.1%" width="118.4%" height="120.3%" filterUnits="objectBoundingBox" id="filter-8">
            <feOffset dx="0" dy="1" in="SourceAlpha" result="shadowOffsetOuter1"></feOffset>
            <feGaussianBlur stdDeviation="0.5" in="shadowOffsetOuter1" result="shadowBlurOuter1"></feGaussianBlur>
            <feColorMatrix values="0 0 0 0 0.0941176471   0 0 0 0 0.278431373   0 0 0 0 0.552941176  0 0 0 1 0" type="matrix" in="shadowBlurOuter1"></feColorMatrix>
        </filter>
        <filter x="-11.5%" y="-7.6%" width="123.0%" height="125.4%" filterUnits="objectBoundingBox" id="filter-9">
            <feGaussianBlur stdDeviation="1" in="SourceAlpha" result="shadowBlurInner1"></feGaussianBlur>
            <feOffset dx="0" dy="1" in="shadowBlurInner1" result="shadowOffsetInner1"></feOffset>
            <feComposite in="shadowOffsetInner1" in2="SourceAlpha" operator="arithmetic" k2="-1" k3="1" result="shadowInnerInner1"></feComposite>
            <feColorMatrix values="0 0 0 0 0   0 0 0 0 0.141634779   0 0 0 0 0.354086947  0 0 0 1 0" type="matrix" in="shadowInnerInner1"></feColorMatrix>
        </filter>
        <filter x="-4.0%" y="-1.6%" width="106.2%" height="104.6%" filterUnits="objectBoundingBox" id="filter-10">
            <feOffset dx="-2" dy="2" in="SourceAlpha" result="shadowOffsetOuter1"></feOffset>
            <feGaussianBlur stdDeviation="2" in="shadowOffsetOuter1" result="shadowBlurOuter1"></feGaussianBlur>
            <feColorMatrix values="0 0 0 0 0   0 0 0 0 0   0 0 0 0 0  0 0 0 0.1 0" type="matrix" in="shadowBlurOuter1" result="shadowMatrixOuter1"></feColorMatrix>
            <feMerge>
                <feMergeNode in="shadowMatrixOuter1"></feMergeNode>
                <feMergeNode in="SourceGraphic"></feMergeNode>
            </feMerge>
        </filter>
        <path d="M179.7528,0.0888 L11.904,20.1312 C5.0976,20.9424 0.2424,27.1224 1.056,33.9216 L32.316,295.704 C33.1296,302.508 39.3024,307.3632 46.1088,306.552 L213.9552,286.5072 C220.7568,285.696 225.6144,279.5232 224.7984,272.7192 L193.5432,10.9368 C192.7896,4.632 187.4328,2.28705943e-14 181.236,2.28705943e-14 C180.7464,2.28705943e-14 180.2496,0.0288 179.7528,0.0888" id="path-11"></path>
        <filter x="-0.4%" y="-0.3%" width="100.9%" height="100.7%" filterUnits="objectBoundingBox" id="filter-12">
            <feGaussianBlur stdDeviation="0.5" in="SourceAlpha" result="shadowBlurInner1"></feGaussianBlur>
            <feOffset dx="1" dy="0" in="shadowBlurInner1" result="shadowOffsetInner1"></feOffset>
            <feComposite in="shadowOffsetInner1" in2="SourceAlpha" operator="arithmetic" k2="-1" k3="1" result="shadowInnerInner1"></feComposite>
            <feColorMatrix values="0 0 0 0 0.0955755585   0 0 0 0 0.277902308   0 0 0 0 0.551392432  0 0 0 1 0" type="matrix" in="shadowInnerInner1"></feColorMatrix>
        </filter>
        <path d="M8.36288,4.868 L6.26288,13.4792 L12.29888,12.7568 L8.42288,4.8632 L8.36288,4.868 Z M7.29488,20.8808 L7.43408,22.052 L0.31808,22.9016 L0.18128,21.7304 L2.95568,21.4016 L8.13248,0.2144 L9.28688,0.0776 L18.83888,19.5032 L21.73088,19.16 L21.87248,20.3264 L12.88688,21.4016 L12.74768,20.2304 L15.78608,19.8704 L12.84608,13.892 L5.95088,14.7176 L4.37408,21.2312 L7.29488,20.8808 Z" id="path-13"></path>
        <filter x="-9.2%" y="-4.4%" width="118.4%" height="117.5%" filterUnits="objectBoundingBox" id="filter-14">
            <feOffset dx="0" dy="1" in="SourceAlpha" result="shadowOffsetOuter1"></feOffset>
            <feGaussianBlur stdDeviation="0.5" in="shadowOffsetOuter1" result="shadowBlurOuter1"></feGaussianBlur>
            <feColorMatrix values="0 0 0 0 0.0941176471   0 0 0 0 0.278431373   0 0 0 0 0.552941176  0 0 0 1 0" type="matrix" in="shadowBlurOuter1"></feColorMatrix>
        </filter>
        <filter x="-11.5%" y="-6.6%" width="123.1%" height="121.9%" filterUnits="objectBoundingBox" id="filter-15">
            <feGaussianBlur stdDeviation="1" in="SourceAlpha" result="shadowBlurInner1"></feGaussianBlur>
            <feOffset dx="0" dy="1" in="shadowBlurInner1" result="shadowOffsetInner1"></feOffset>
            <feComposite in="shadowOffsetInner1" in2="SourceAlpha" operator="arithmetic" k2="-1" k3="1" result="shadowInnerInner1"></feComposite>
            <feColorMatrix values="0 0 0 0 0   0 0 0 0 0.141634779   0 0 0 0 0.354086947  0 0 0 1 0" type="matrix" in="shadowInnerInner1"></feColorMatrix>
        </filter>
        <path d="M18.39752,34.67096 C17.60072,34.78616 16.86872,35.06696 16.22792,35.47496 C17.24792,34.33256 17.79272,32.77976 17.59592,31.14056 C17.23832,28.15256 14.56232,26.00936 11.58392,26.29976 C8.61992,26.71976 6.52472,29.43416 6.87752,32.42216 C7.07672,34.05656 7.96952,35.43896 9.22952,36.31016 C8.51432,36.06536 7.73432,35.96456 6.93272,36.03896 C3.96872,36.46136 1.87112,39.17576 2.22632,42.16136 C2.58632,45.14936 5.26232,47.29496 8.24072,47.00456 C10.67912,46.65656 12.52472,44.76296 12.90872,42.43496 C12.87032,44.48696 12.70712,49.01576 12.04952,51.01976 L16.95272,50.43176 C15.84152,48.64136 14.61272,44.27816 14.09432,42.29816 C15.01112,44.46296 17.25752,45.86936 19.70792,45.63416 C22.66712,45.21896 24.76952,42.49976 24.41432,39.51416 C24.05192,36.52616 21.37832,34.38536 18.39752,34.67096" id="path-16"></path>
        <filter x="-9.0%" y="-4.0%" width="118.0%" height="116.2%" filterUnits="objectBoundingBox" id="filter-17">
            <feOffset dx="0" dy="1" in="SourceAlpha" result="shadowOffsetOuter1"></feOffset>
            <feGaussianBlur stdDeviation="0.5" in="shadowOffsetOuter1" result="shadowBlurOuter1"></feGaussianBlur>
            <feColorMatrix values="0 0 0 0 0.0941176471   0 0 0 0 0.278431373   0 0 0 0 0.552941176  0 0 0 1 0" type="matrix" in="shadowBlurOuter1"></feColorMatrix>
        </filter>
        <filter x="-11.2%" y="-6.1%" width="122.5%" height="120.2%" filterUnits="objectBoundingBox" id="filter-18">
            <feGaussianBlur stdDeviation="1" in="SourceAlpha" result="shadowBlurInner1"></feGaussianBlur>
            <feOffset dx="0" dy="1" in="shadowBlurInner1" result="shadowOffsetInner1"></feOffset>
            <feComposite in="shadowOffsetInner1" in2="SourceAlpha" operator="arithmetic" k2="-1" k3="1" result="shadowInnerInner1"></feComposite>
            <feColorMatrix values="0 0 0 0 0   0 0 0 0 0.141634779   0 0 0 0 0.354086947  0 0 0 1 0" type="matrix" in="shadowInnerInner1"></feColorMatrix>
        </filter>
        <filter x="-4.3%" y="-1.7%" width="106.7%" height="104.7%" filterUnits="objectBoundingBox" id="filter-19">
            <feOffset dx="-2" dy="2" in="SourceAlpha" result="shadowOffsetOuter1"></feOffset>
            <feGaussianBlur stdDeviation="2" in="shadowOffsetOuter1" result="shadowBlurOuter1"></feGaussianBlur>
            <feColorMatrix values="0 0 0 0 0   0 0 0 0 0   0 0 0 0 0  0 0 0 0.1 0" type="matrix" in="shadowBlurOuter1" result="shadowMatrixOuter1"></feColorMatrix>
            <feMerge>
                <feMergeNode in="shadowMatrixOuter1"></feMergeNode>
                <feMergeNode in="SourceGraphic"></feMergeNode>
            </feMerge>
        </filter>
        <path d="M13.7248,11.9384 L0.1936,275.228 C-0.1568,282.0704 5.1064,287.9048 11.9464,288.2552 L180.7648,296.9336 C187.6072,297.284 193.4392,292.0184 193.7896,285.1784 L207.3232,21.884 C207.6736,15.0392 202.4104,9.2072 195.568,8.8568 L26.7496,0.1856 C26.5312,0.1736 26.3152,0.1688 26.1016,0.1688 C19.5448,0.1688 14.0656,5.3096 13.7248,11.9384" id="path-20"></path>
        <filter x="-0.5%" y="-0.3%" width="101.0%" height="100.7%" filterUnits="objectBoundingBox" id="filter-21">
            <feGaussianBlur stdDeviation="0.5" in="SourceAlpha" result="shadowBlurInner1"></feGaussianBlur>
            <feOffset dx="1" dy="0" in="shadowBlurInner1" result="shadowOffsetInner1"></feOffset>
            <feComposite in="shadowOffsetInner1" in2="SourceAlpha" operator="arithmetic" k2="-1" k3="1" result="shadowInnerInner1"></feComposite>
            <feColorMatrix values="0 0 0 0 0.0955755585   0 0 0 0 0.277902308   0 0 0 0 0.551392432  0 0 0 1 0" type="matrix" in="shadowInnerInner1"></feColorMatrix>
        </filter>
        <path d="M11.06664,4.88032 L7.53864,13.00912 L13.61064,13.32112 L11.12424,4.88512 L11.06664,4.88032 Z M7.30344,20.48032 L7.24104,21.65632 L0.08664,21.28912 L0.14664,20.11312 L2.93784,20.25472 L11.62824,0.25072 L12.78984,0.31312 L18.91224,21.07552 L21.81864,21.22672 L21.76104,22.40272 L12.72264,21.93952 L12.78504,20.76112 L15.84024,20.91952 L13.95864,14.53072 L7.02264,14.17552 L4.36584,20.32912 L7.30344,20.48032 Z" id="path-22"></path>
        <filter x="-9.2%" y="-4.5%" width="118.4%" height="118.1%" filterUnits="objectBoundingBox" id="filter-23">
            <feOffset dx="0" dy="1" in="SourceAlpha" result="shadowOffsetOuter1"></feOffset>
            <feGaussianBlur stdDeviation="0.5" in="shadowOffsetOuter1" result="shadowBlurOuter1"></feGaussianBlur>
            <feColorMatrix values="0 0 0 0 0.0941176471   0 0 0 0 0.278431373   0 0 0 0 0.552941176  0 0 0 1 0" type="matrix" in="shadowBlurOuter1"></feColorMatrix>
        </filter>
        <filter x="-11.5%" y="-6.8%" width="123.0%" height="122.6%" filterUnits="objectBoundingBox" id="filter-24">
            <feGaussianBlur stdDeviation="1" in="SourceAlpha" result="shadowBlurInner1"></feGaussianBlur>
            <feOffset dx="0" dy="1" in="shadowBlurInner1" result="shadowOffsetInner1"></feOffset>
            <feComposite in="shadowOffsetInner1" in2="SourceAlpha" operator="arithmetic" k2="-1" k3="1" result="shadowInnerInner1"></feComposite>
            <feColorMatrix values="0 0 0 0 0   0 0 0 0 0.141634779   0 0 0 0 0.354086947  0 0 0 1 0" type="matrix" in="shadowInnerInner1"></feColorMatrix>
        </filter>
        <path d="M11.11824,27.00544 C11.11824,27.00544 15.03264,34.85584 20.64864,41.82064 C14.34864,48.16624 9.64944,55.57984 9.64944,55.57984 C9.64944,55.57984 5.73504,47.72464 0.11904,40.76224 C6.41904,34.41664 11.11824,27.00544 11.11824,27.00544" id="path-25"></path>
        <filter x="-9.7%" y="-3.5%" width="119.5%" height="114.0%" filterUnits="objectBoundingBox" id="filter-26">
            <feOffset dx="0" dy="1" in="SourceAlpha" result="shadowOffsetOuter1"></feOffset>
            <feGaussianBlur stdDeviation="0.5" in="shadowOffsetOuter1" result="shadowBlurOuter1"></feGaussianBlur>
            <feColorMatrix values="0 0 0 0 0.0941176471   0 0 0 0 0.278431373   0 0 0 0 0.552941176  0 0 0 1 0" type="matrix" in="shadowBlurOuter1"></feColorMatrix>
        </filter>
        <filter x="-12.2%" y="-5.2%" width="124.4%" height="117.5%" filterUnits="objectBoundingBox" id="filter-27">
            <feGaussianBlur stdDeviation="1" in="SourceAlpha" result="shadowBlurInner1"></feGaussianBlur>
            <feOffset dx="0" dy="1" in="shadowBlurInner1" result="shadowOffsetInner1"></feOffset>
            <feComposite in="shadowOffsetInner1" in2="SourceAlpha" operator="arithmetic" k2="-1" k3="1" result="shadowInnerInner1"></feComposite>
            <feColorMatrix values="0 0 0 0 0   0 0 0 0 0.141634779   0 0 0 0 0.354086947  0 0 0 1 0" type="matrix" in="shadowInnerInner1"></feColorMatrix>
        </filter>
        <filter x="-3.8%" y="-1.6%" width="105.9%" height="104.4%" filterUnits="objectBoundingBox" id="filter-28">
            <feOffset dx="-2" dy="2" in="SourceAlpha" result="shadowOffsetOuter1"></feOffset>
            <feGaussianBlur stdDeviation="2" in="shadowOffsetOuter1" result="shadowBlurOuter1"></feGaussianBlur>
            <feColorMatrix values="0 0 0 0 0   0 0 0 0 0   0 0 0 0 0  0 0 0 0.1 0" type="matrix" in="shadowBlurOuter1" result="shadowMatrixOuter1"></feColorMatrix>
            <feMerge>
                <feMergeNode in="shadowMatrixOuter1"></feMergeNode>
                <feMergeNode in="SourceGraphic"></feMergeNode>
            </feMerge>
        </filter>
        <path d="M47.6936,10.6504 L0.2864,270.0016 C-0.9424,276.736 3.5216,283.1992 10.2608,284.4328 L176.5472,314.8288 C183.284,316.06 189.7472,311.5912 190.9808,304.8568 L238.3856,45.5128 C239.6168,38.7712 235.1528,32.3056 228.4136,31.0792 L62.1272,0.6808 C61.3736,0.5416 60.6248,0.4744 59.8832,0.4744 C54.0104,0.4768 48.788,4.6672 47.6936,10.6504" id="path-29"></path>
        <filter x="-0.4%" y="-0.3%" width="100.8%" height="100.6%" filterUnits="objectBoundingBox" id="filter-30">
            <feGaussianBlur stdDeviation="0.5" in="SourceAlpha" result="shadowBlurInner1"></feGaussianBlur>
            <feOffset dx="1" dy="0" in="shadowBlurInner1" result="shadowOffsetInner1"></feOffset>
            <feComposite in="shadowOffsetInner1" in2="SourceAlpha" operator="arithmetic" k2="-1" k3="1" result="shadowInnerInner1"></feComposite>
            <feColorMatrix values="0 0 0 0 0.0955755585   0 0 0 0 0.277902308   0 0 0 0 0.551392432  0 0 0 1 0" type="matrix" in="shadowInnerInner1"></feColorMatrix>
        </filter>
        <path d="M153.50192,277.268 L158.04752,269.6648 L152.07152,268.568 L153.44192,277.2584 L153.50192,277.268 Z M159.24752,262.2848 L159.45632,261.1232 L166.50752,262.4144 L166.29392,263.5736 L163.54832,263.0696 L152.34752,281.7824 L151.20512,281.5736 L147.81152,260.192 L144.94592,259.6688 L145.15712,258.512 L154.06112,260.1392 L153.84992,261.2984 L150.83792,260.744 L151.87952,267.3248 L158.70992,268.5728 L162.14192,262.8152 L159.24752,262.2848 Z" id="path-31"></path>
        <filter x="-9.3%" y="-4.3%" width="118.6%" height="117.2%" filterUnits="objectBoundingBox" id="filter-32">
            <feOffset dx="0" dy="1" in="SourceAlpha" result="shadowOffsetOuter1"></feOffset>
            <feGaussianBlur stdDeviation="0.5" in="shadowOffsetOuter1" result="shadowBlurOuter1"></feGaussianBlur>
            <feColorMatrix values="0 0 0 0 0.0941176471   0 0 0 0 0.278431373   0 0 0 0 0.552941176  0 0 0 1 0" type="matrix" in="shadowBlurOuter1"></feColorMatrix>
        </filter>
        <filter x="-11.6%" y="-6.4%" width="123.2%" height="121.5%" filterUnits="objectBoundingBox" id="filter-33">
            <feGaussianBlur stdDeviation="1" in="SourceAlpha" result="shadowBlurInner1"></feGaussianBlur>
            <feOffset dx="0" dy="1" in="shadowBlurInner1" result="shadowOffsetInner1"></feOffset>
            <feComposite in="shadowOffsetInner1" in2="SourceAlpha" operator="arithmetic" k2="-1" k3="1" result="shadowInnerInner1"></feComposite>
            <feColorMatrix values="0 0 0 0 0   0 0 0 0 0.141634779   0 0 0 0 0.354086947  0 0 0 1 0" type="matrix" in="shadowInnerInner1"></feColorMatrix>
        </filter>
        <path d="M150.1784,245.40224 C153.3752,249.07664 155.0648,250.91984 156.4544,255.54944 C159.3968,251.71184 161.6264,250.58624 165.9224,248.27744 C172.628,244.67504 170.4968,237.98144 165.9776,236.85104 C163.1552,236.15024 161.0552,237.86864 160.028,238.99904 C160.592,237.32384 161.6696,234.33584 162.5624,233.07824 L158.696,232.37024 C159.0872,233.86064 159.0344,237.03584 158.972,238.80704 C158.408,237.38144 157.0544,235.03424 154.1672,234.69104 C149.5424,234.15344 145.1768,239.65664 150.1784,245.40224" id="path-34"></path>
        <filter x="-9.0%" y="-4.3%" width="118.0%" height="117.3%" filterUnits="objectBoundingBox" id="filter-35">
            <feOffset dx="0" dy="1" in="SourceAlpha" result="shadowOffsetOuter1"></feOffset>
            <feGaussianBlur stdDeviation="0.5" in="shadowOffsetOuter1" result="shadowBlurOuter1"></feGaussianBlur>
            <feColorMatrix values="0 0 0 0 0.0941176471   0 0 0 0 0.278431373   0 0 0 0 0.552941176  0 0 0 1 0" type="matrix" in="shadowBlurOuter1"></feColorMatrix>
        </filter>
        <filter x="-11.2%" y="-6.5%" width="122.5%" height="121.6%" filterUnits="objectBoundingBox" id="filter-36">
            <feGaussianBlur stdDeviation="1" in="SourceAlpha" result="shadowBlurInner1"></feGaussianBlur>
            <feOffset dx="0" dy="1" in="shadowBlurInner1" result="shadowOffsetInner1"></feOffset>
            <feComposite in="shadowOffsetInner1" in2="SourceAlpha" operator="arithmetic" k2="-1" k3="1" result="shadowInnerInner1"></feComposite>
            <feColorMatrix values="0 0 0 0 0   0 0 0 0 0.141634779   0 0 0 0 0.354086947  0 0 0 1 0" type="matrix" in="shadowInnerInner1"></feColorMatrix>
        </filter>
        <path d="M142.12304,126.33968 C128.37344,110.53808 121.11344,102.61568 115.13504,82.72208 C102.50384,99.21248 92.91344,104.05568 74.45744,113.96528 C45.62144,129.45728 54.78464,158.23088 74.21744,163.09088 C86.33504,166.11728 95.36144,158.72048 99.78704,153.85328 C97.35584,161.06768 92.72624,173.90288 88.88144,179.32448 L105.51344,182.36528 C103.83584,175.93328 104.04464,162.28928 104.32304,154.68128 C106.74224,160.80128 112.57184,170.91248 124.97024,172.36688 C144.86864,174.69968 163.61744,151.02848 142.12304,126.33968" id="path-37"></path>
        <filter x="-2.1%" y="-1.0%" width="104.2%" height="104.0%" filterUnits="objectBoundingBox" id="filter-38">
            <feOffset dx="0" dy="1" in="SourceAlpha" result="shadowOffsetOuter1"></feOffset>
            <feGaussianBlur stdDeviation="0.5" in="shadowOffsetOuter1" result="shadowBlurOuter1"></feGaussianBlur>
            <feColorMatrix values="0 0 0 0 0.0941176471   0 0 0 0 0.278431373   0 0 0 0 0.552941176  0 0 0 1 0" type="matrix" in="shadowBlurOuter1"></feColorMatrix>
        </filter>
        <filter x="-2.6%" y="-1.5%" width="105.2%" height="105.0%" filterUnits="objectBoundingBox" id="filter-39">
            <feGaussianBlur stdDeviation="1" in="SourceAlpha" result="shadowBlurInner1"></feGaussianBlur>
            <feOffset dx="0" dy="1" in="shadowBlurInner1" result="shadowOffsetInner1"></feOffset>
            <feComposite in="shadowOffsetInner1" in2="SourceAlpha" operator="arithmetic" k2="-1" k3="1" result="shadowInnerInner1"></feComposite>
            <feColorMatrix values="0 0 0 0 0   0 0 0 0 0.141634779   0 0 0 0 0.354086947  0 0 0 1 0" type="matrix" in="shadowInnerInner1"></feColorMatrix>
        </filter>
        <linearGradient x1="0%" y1="100%" x2="100%" y2="100%" id="linearGradient-40">
            <stop stop-color="#CC9C58" offset="0%"></stop>
            <stop stop-color="#FFEEB8" offset="38.2135116%"></stop>
            <stop stop-color="#BB943B" offset="52.3911669%"></stop>
            <stop stop-color="#FFFBB9" offset="100%"></stop>
        </linearGradient>
        <path d="M53.85512,4.89608 L49.30952,12.50168 L55.28792,13.59608 L53.91272,4.90568 L53.85512,4.89608 Z M48.10952,19.87928 L47.89832,21.04088 L40.85192,19.74968 L41.06072,18.58808 L43.80872,19.09448 L55.01192,0.37928 L56.15432,0.58808 L59.54552,21.96728 L62.40872,22.49288 L62.19992,23.64968 L53.29832,22.02488 L53.50712,20.86568 L56.51672,21.41528 L55.47752,14.83928 L48.64712,13.59128 L45.21512,19.35128 L48.10952,19.87928 Z" id="path-41"></path>
        <filter x="-9.3%" y="-4.3%" width="118.6%" height="117.2%" filterUnits="objectBoundingBox" id="filter-42">
            <feOffset dx="0" dy="1" in="SourceAlpha" result="shadowOffsetOuter1"></feOffset>
            <feGaussianBlur stdDeviation="0.5" in="shadowOffsetOuter1" result="shadowBlurOuter1"></feGaussianBlur>
            <feColorMatrix values="0 0 0 0 0.0941176471   0 0 0 0 0.278431373   0 0 0 0 0.552941176  0 0 0 1 0" type="matrix" in="shadowBlurOuter1"></feColorMatrix>
        </filter>
        <filter x="-11.6%" y="-6.4%" width="123.2%" height="121.5%" filterUnits="objectBoundingBox" id="filter-43">
            <feGaussianBlur stdDeviation="1" in="SourceAlpha" result="shadowBlurInner1"></feGaussianBlur>
            <feOffset dx="0" dy="1" in="shadowBlurInner1" result="shadowOffsetInner1"></feOffset>
            <feComposite in="shadowOffsetInner1" in2="SourceAlpha" operator="arithmetic" k2="-1" k3="1" result="shadowInnerInner1"></feComposite>
            <feColorMatrix values="0 0 0 0 0   0 0 0 0 0.141634779   0 0 0 0 0.354086947  0 0 0 1 0" type="matrix" in="shadowInnerInner1"></feColorMatrix>
        </filter>
        <path d="M57.1784,36.7616 C53.9792,33.0848 52.2896,31.2392 50.8976,26.612 C47.96,30.4472 45.728,31.5776 41.4368,33.884 C34.7288,37.4888 36.86,44.1776 41.3792,45.3128 C44.1992,46.0136 46.2968,44.2952 47.3312,43.16 C46.7624,44.8376 45.6872,47.8256 44.792,49.0856 L48.6608,49.7936 C48.2696,48.2984 48.3176,45.1232 48.3848,43.3544 C48.9488,44.7776 50.3048,47.1296 53.1872,47.4704 C57.8168,48.008 62.1752,42.5048 57.1784,36.7616" id="path-44"></path>
        <filter x="-9.0%" y="-4.3%" width="118.0%" height="117.3%" filterUnits="objectBoundingBox" id="filter-45">
            <feOffset dx="0" dy="1" in="SourceAlpha" result="shadowOffsetOuter1"></feOffset>
            <feGaussianBlur stdDeviation="0.5" in="shadowOffsetOuter1" result="shadowBlurOuter1"></feGaussianBlur>
            <feColorMatrix values="0 0 0 0 0.0941176471   0 0 0 0 0.278431373   0 0 0 0 0.552941176  0 0 0 1 0" type="matrix" in="shadowBlurOuter1"></feColorMatrix>
        </filter>
        <filter x="-11.2%" y="-6.5%" width="122.5%" height="121.6%" filterUnits="objectBoundingBox" id="filter-46">
            <feGaussianBlur stdDeviation="1" in="SourceAlpha" result="shadowBlurInner1"></feGaussianBlur>
            <feOffset dx="0" dy="1" in="shadowBlurInner1" result="shadowOffsetInner1"></feOffset>
            <feComposite in="shadowOffsetInner1" in2="SourceAlpha" operator="arithmetic" k2="-1" k3="1" result="shadowInnerInner1"></feComposite>
            <feColorMatrix values="0 0 0 0 0   0 0 0 0 0.141634779   0 0 0 0 0.354086947  0 0 0 1 0" type="matrix" in="shadowInnerInner1"></feColorMatrix>
        </filter>
    </defs>
    <g id="Main" stroke="none" stroke-width="1" fill="none" fill-rule="evenodd">
        <g id="1.01-Landing" transform="translate(-235.000000, -8893.000000)">
            <g id="New-Possibilities" transform="translate(0.000000, 8680.000000)">
                <g id="Group-5" transform="translate(241.000000, 215.000000)">
                    <g id="Group-3" filter="url(#filter-1)" transform="translate(0.000000, 4.000000)">
                        <g id="Fill-1">
                            <use fill="#0C3675" fill-rule="evenodd" xlink:href="#path-2"></use>
                            <use fill="black" fill-opacity="1" filter="url(#filter-3)" xlink:href="#path-2"></use>
                        </g>
                        <g id="Group-14" transform="translate(17.800000, 52.706400)">
                            <g id="Fill-4">
                                <use fill="black" fill-opacity="1" filter="url(#filter-5)" xlink:href="#path-4"></use>
                                <use fill="#002A69" fill-rule="evenodd" xlink:href="#path-4"></use>
                                <use fill="black" fill-opacity="1" filter="url(#filter-6)" xlink:href="#path-4"></use>
                            </g>
                            <g id="Fill-6">
                                <use fill="black" fill-opacity="1" filter="url(#filter-8)" xlink:href="#path-7"></use>
                                <use fill="#002A69" fill-rule="evenodd" xlink:href="#path-7"></use>
                                <use fill="black" fill-opacity="1" filter="url(#filter-9)" xlink:href="#path-7"></use>
                            </g>
                            <path d="M103.04456,84.56 C103.04456,84.56 106.36136,64.4936 124.77176,59.3744 C144.47576,53.8928 162.77576,77.9072 149.71736,105.836 C140.34056,125.9024 126.32936,141.0488 119.17976,148.0016 C109.57496,145.3112 90.03176,138.6944 72.20936,125.5472 C47.39576,107.2472 51.99896,77.408 71.92616,72.812 C90.55016,68.5136 103.04456,84.56 103.04456,84.56" id="Fill-8" fill="#ED1C24"></path>
                            <path d="M211.04576,211.61024 L212.00816,202.79984 L206.12096,204.29984 L210.99056,211.62464 L211.04576,211.61024 Z M210.02576,195.59264 L209.73536,194.45504 L216.68096,192.68624 L216.97376,193.82624 L214.25936,194.51744 L211.87856,216.19424 L210.75296,216.48224 L198.76016,198.46064 L195.93536,199.17584 L195.64496,198.03584 L204.41456,195.80384 L204.70496,196.94384 L201.74336,197.70224 L205.42976,203.24624 L212.15936,201.53264 L212.87936,194.86544 L210.02576,195.59264 Z" id="Fill-10" fill="#ED1C24"></path>
                            <path d="M203.06048,184.37336 C203.06048,184.37336 202.32848,188.79176 198.27728,189.91976 C193.94048,191.12456 189.91088,185.83736 192.78608,179.68856 C194.85008,175.27016 197.93408,171.93176 199.51088,170.40536 C201.62528,170.99816 205.92608,172.45496 209.85248,175.34936 C215.31248,179.37656 214.29968,185.94536 209.91248,186.95816 C205.81088,187.90616 203.06048,184.37336 203.06048,184.37336" id="Fill-12" fill="#ED1C24"></path>
                        </g>
                    </g>
                    <g id="Group-4" filter="url(#filter-10)" transform="translate(42.000000, 0.000000)">
                        <g id="Fill-15">
                            <use fill="#0C3675" fill-rule="evenodd" xlink:href="#path-11"></use>
                            <use fill="black" fill-opacity="1" filter="url(#filter-12)" xlink:href="#path-11"></use>
                        </g>
                        <g id="Group-28" transform="translate(16.600000, 32.706400)">
                            <path d="M184.41368,236.75144 L186.51128,228.14504 L180.48008,228.86744 L184.35608,236.75864 L184.41368,236.75144 Z M185.47688,220.74104 L185.34008,219.57224 L192.45608,218.72024 L192.59528,219.89144 L189.81848,220.22024 L184.64648,241.40744 L183.48488,241.54424 L173.93768,222.11864 L171.04328,222.46184 L170.90648,221.29544 L179.88728,220.22024 L180.02648,221.39144 L176.98808,221.75384 L179.93048,227.72984 L186.82568,226.90664 L188.40008,220.39064 L185.47688,220.74104 Z" id="Fill-18" fill="#0B0B0B"></path>
                            <path d="M174.3776,206.95544 C175.1768,206.83784 175.9064,206.55464 176.5472,206.14904 C175.5272,207.29144 174.9824,208.84424 175.1792,210.48584 C175.5344,213.47144 178.2104,215.61224 181.1936,215.32184 C184.1552,214.90664 186.2552,212.19224 185.8952,209.20424 C185.7032,207.56504 184.8056,206.18264 183.5456,205.31384 C184.2608,205.55864 185.0384,205.66184 185.8424,205.58264 C188.8088,205.16504 190.9064,202.44824 190.5464,199.46024 C190.1912,196.47704 187.5128,194.32664 184.5344,194.61944 C182.0984,194.96504 180.248,196.86344 179.8664,199.18904 C179.9072,197.13944 180.068,192.60584 180.728,190.60664 L175.8272,191.19224 C176.936,192.98504 178.16,197.34584 178.6784,199.32824 C177.7592,197.16344 175.5176,195.74984 173.0696,195.98744 C170.1056,196.40744 168.008,199.12184 168.3656,202.10984 C168.7208,205.10024 171.3992,207.24104 174.3776,206.95544" id="Fill-20" fill="#000000"></path>
                            <path d="M117.90512,98.10704 C114.59792,98.57984 111.56192,99.75584 108.90512,101.44064 C113.13392,96.71024 115.39712,90.26384 114.58592,83.46944 C113.10512,71.07824 101.99552,62.19104 89.64512,63.38624 C77.35232,65.13104 68.64752,76.38944 70.12832,88.78064 C70.94192,95.57504 74.65712,101.30384 79.87952,104.90864 C76.90352,103.89584 73.67312,103.46864 70.34912,103.78784 C58.05872,105.53504 49.35872,116.79104 50.83712,129.18224 C52.32032,141.57344 63.42272,150.46064 75.77792,149.26544 C85.88672,147.82784 93.54992,139.95584 95.14112,130.31984 C94.97552,138.82304 94.30352,157.60064 91.57232,165.91184 L111.90752,163.48304 C107.29472,156.05504 102.22112,137.95904 100.06112,129.72944 C103.87232,138.72704 113.17472,144.56864 123.33632,143.58704 C135.62672,141.84224 144.32672,130.58624 142.84592,118.19744 C141.36512,105.80384 130.26032,96.91664 117.90512,98.10704" id="Fill-22" fill="#000000"></path>
                            <g id="Fill-24">
                                <use fill="black" fill-opacity="1" filter="url(#filter-14)" xlink:href="#path-13"></use>
                                <use fill="#002A69" fill-rule="evenodd" xlink:href="#path-13"></use>
                                <use fill="black" fill-opacity="1" filter="url(#filter-15)" xlink:href="#path-13"></use>
                            </g>
                            <g id="Fill-26">
                                <use fill="black" fill-opacity="1" filter="url(#filter-17)" xlink:href="#path-16"></use>
                                <use fill="#002A69" fill-rule="evenodd" xlink:href="#path-16"></use>
                                <use fill="black" fill-opacity="1" filter="url(#filter-18)" xlink:href="#path-16"></use>
                            </g>
                        </g>
                    </g>
                    <g id="Group-2" filter="url(#filter-19)" transform="translate(80.000000, 7.000000)">
                        <g id="Fill-29">
                            <use fill="#0C3675" fill-rule="evenodd" xlink:href="#path-20"></use>
                            <use fill="black" fill-opacity="1" filter="url(#filter-21)" xlink:href="#path-20"></use>
                        </g>
                        <g id="Group-42" transform="translate(25.600000, 14.706400)">
                            <path d="M145.26744,262.25464 L148.79544,254.12344 L142.72584,253.81384 L145.20984,262.25224 L145.26744,262.25464 Z M149.03064,246.65224 L149.09304,245.47864 L156.24504,245.84584 L156.18744,247.02184 L153.39624,246.87784 L144.70584,266.88424 L143.54424,266.82184 L137.41944,246.05704 L134.51544,245.90584 L134.57544,244.73224 L143.60904,245.19544 L143.54664,246.37144 L140.49624,246.21544 L142.37544,252.60424 L149.31384,252.96184 L151.96824,246.80584 L149.03064,246.65224 Z" id="Fill-32" fill="#ED1C24"></path>
                            <path d="M145.21608,240.13192 C145.21608,240.13192 141.30408,232.27672 135.68808,225.31672 C141.98808,218.96872 146.68488,211.55752 146.68488,211.55752 C146.68488,211.55752 150.59688,219.41272 156.21528,226.37272 C149.91528,232.72072 145.21608,240.13192 145.21608,240.13192" id="Fill-34" fill="#ED1C24"></path>
                            <path d="M81.99576,75.04288 C81.99576,75.04288 97.60536,106.37248 120.00696,134.13328 C94.87656,159.45568 76.13736,189.01888 76.13736,189.01888 C76.13736,189.01888 60.52776,157.68928 38.12616,129.92368 C63.25416,104.60608 81.99576,75.04288 81.99576,75.04288" id="Fill-36" fill="#ED1C24"></path>
                            <g id="Fill-38">
                                <use fill="black" fill-opacity="1" filter="url(#filter-23)" xlink:href="#path-22"></use>
                                <use fill="#002A69" fill-rule="evenodd" xlink:href="#path-22"></use>
                                <use fill="black" fill-opacity="1" filter="url(#filter-24)" xlink:href="#path-22"></use>
                            </g>
                            <g id="Fill-40">
                                <use fill="black" fill-opacity="1" filter="url(#filter-26)" xlink:href="#path-25"></use>
                                <use fill="#002A69" fill-rule="evenodd" xlink:href="#path-25"></use>
                                <use fill="black" fill-opacity="1" filter="url(#filter-27)" xlink:href="#path-25"></use>
                            </g>
                        </g>
                    </g>
                    <g id="Group" filter="url(#filter-28)" transform="translate(91.000000, 2.000000)">
                        <g id="Fill-43">
                            <use fill="#0C3675" fill-rule="evenodd" xlink:href="#path-29"></use>
                            <use fill="black" fill-opacity="1" filter="url(#filter-30)" xlink:href="#path-29"></use>
                        </g>
                        <g id="Group-56" transform="translate(15.600000, 16.306400)">
                            <g id="Fill-46">
                                <use fill="black" fill-opacity="1" filter="url(#filter-32)" xlink:href="#path-31"></use>
                                <use fill="#002A69" fill-rule="evenodd" xlink:href="#path-31"></use>
                                <use fill="black" fill-opacity="1" filter="url(#filter-33)" xlink:href="#path-31"></use>
                            </g>
                            <g id="Fill-48">
                                <use fill="black" fill-opacity="1" filter="url(#filter-35)" xlink:href="#path-34"></use>
                                <use fill="#002A69" fill-rule="evenodd" xlink:href="#path-34"></use>
                                <use fill="black" fill-opacity="1" filter="url(#filter-36)" xlink:href="#path-34"></use>
                            </g>
                            <g id="Fill-50">
                                <use fill="black" fill-opacity="1" filter="url(#filter-38)" xlink:href="#path-37"></use>
                                <use fill="#002A69" fill-rule="evenodd" xlink:href="#path-37"></use>
                                <use fill="black" fill-opacity="1" filter="url(#filter-39)" xlink:href="#path-37"></use>
                            </g>
                            <path d="M205.276918,25.2039734 C204.392092,25.1646934 202.110285,25.154989 200.580019,25.178557 C200.555103,25.1784414 200.529472,25.1783259 200.505032,25.1782104 C200.217005,25.1771706 199.949125,25.1762464 199.698889,25.1756687 L196.485165,25.1638847 L194.776671,28.6019225 C194.734469,28.6876453 194.692504,28.773368 194.650302,28.8589753 C194.631227,28.8922477 194.612033,28.9275997 194.593674,28.9651468 C194.570903,29.0145933 194.546464,29.0676213 194.520952,29.1222667 C194.229824,29.714239 193.945373,30.2907305 193.69025,30.8071466 C193.648882,30.8903278 193.607037,30.9746642 193.565072,31.0599248 C193.502245,31.1863139 193.44061,31.3095838 193.379571,31.4308896 C192.852634,32.4599094 192.359673,33.3826423 192.26263,33.497363 C192.257146,33.503255 192.251782,33.5088004 192.248801,33.5097246 C192.232707,33.5135371 192.205168,33.4904312 192.168449,33.4447971 C191.817833,32.8862127 190.183015,29.5828822 190.183015,29.412823 C190.183015,29.3705392 190.592643,28.4836205 191.098122,27.4446651 C191.603839,26.3971605 192.004765,25.467958 191.996062,25.3750724 C191.980921,25.2798762 191.910107,25.2187612 191.790175,25.192536 C191.762993,25.1745134 191.721506,25.1638847 191.673581,25.1638847 C191.58536,25.1638847 191.528375,25.1857198 191.50477,25.2203786 C191.353603,25.3397204 191.160353,25.73795 190.566416,26.9631387 C190.095748,27.9345095 189.843009,28.373752 189.755861,28.3568848 C189.68612,28.3400175 189.3026,27.6641708 188.91896,26.8532703 C188.719272,26.4419859 188.570132,26.1320206 188.441855,25.8971495 C188.429338,25.8526707 188.397387,25.7816201 188.343621,25.670712 C188.304398,25.5912278 188.26148,25.5238742 188.21129,25.466225 C188.218443,25.4049945 188.157643,25.3683717 187.989905,25.2994007 C187.958432,25.2844974 187.924336,25.271327 187.888213,25.2591964 C187.677438,25.1657332 187.406459,25.1671196 186.957727,25.1638847 C186.955223,25.1638847 186.953078,25.1638847 186.950574,25.1638847 C186.825039,25.1626139 186.702365,25.1649245 186.590778,25.1710476 C186.577307,25.1717407 186.56467,25.172665 186.551675,25.1734737 C186.514718,25.1757843 186.479191,25.1786725 186.445334,25.1819073 C186.440207,25.1823694 186.434843,25.1828315 186.429716,25.1834092 C186.264721,25.2001609 186.142643,25.2273103 186.10342,25.265204 C186.092929,25.2754861 186.084227,25.287039 186.075643,25.298823 C186.050727,25.3219289 186.032367,25.3483851 186.020207,25.3791159 C185.956426,25.5186754 186.031414,25.7414159 186.216795,26.0930873 C186.223829,26.1063731 186.230386,26.1174639 186.237301,26.1300566 C186.258521,26.172687 186.27998,26.2155484 186.303943,26.2619912 C186.33935,26.3291137 186.373565,26.3898821 186.406827,26.4470692 C186.632027,26.9305595 186.932692,27.5584615 187.262802,28.2301491 C187.960101,29.6408779 188.526738,30.86572 188.526738,30.9417383 C188.526738,31.0177566 188.256473,31.6259031 187.916587,32.3101834 C187.673623,32.8092702 187.501236,33.1321747 187.379516,33.3160974 C187.334929,33.3806783 187.29511,33.4316268 187.261491,33.4673253 C187.226084,33.501522 187.19771,33.5155011 187.175655,33.5097246 C187.088508,33.4928573 186.303943,31.9553928 185.101047,29.4381239 C184.585792,28.3648563 184.205253,27.5603099 183.908403,26.9571312 C183.842476,26.8010511 183.758905,26.6152799 183.662817,26.4140278 C183.383134,25.8388072 183.238048,25.572281 183.105121,25.4301799 C183.034187,25.3496559 182.96826,25.3074877 182.886955,25.2737531 C182.861442,25.2639331 182.826512,25.2545753 182.784905,25.245795 C182.558274,25.1311899 182.308635,25.1666574 181.893284,25.1638847 C181.880289,25.1638847 181.869083,25.1642313 181.856327,25.1642313 C181.481033,25.1551045 181.140788,25.1710476 181.091313,25.2230358 C181.08428,25.2293899 181.078557,25.235975 181.074265,25.2427913 C181.068662,25.2518026 181.066159,25.261276 181.064847,25.2708649 C180.924172,25.3554324 180.913084,25.5021547 181.007385,25.7530844 C181.010961,25.7955992 181.048872,25.8751989 181.125528,26.0203038 C181.147345,26.0650136 181.170473,26.1113409 181.195986,26.1606719 L181.34143,26.442448 C181.375764,26.5132675 181.391262,26.5749601 181.363604,26.688641 C181.290047,26.8814595 181.126244,27.2393694 180.919522,27.6538887 C180.815923,27.85387 180.690984,28.0918604 180.541605,28.3761782 L179.565936,30.2321571 C178.528632,32.2004305 177.639514,33.8053642 177.587178,33.8137978 C177.509329,33.8137978 176.928744,32.7270133 175.885718,30.6387048 C175.846853,30.5585275 175.806915,30.4767327 175.765428,30.3927429 C175.739319,30.3415634 175.713449,30.2911926 175.687699,30.2413994 C175.377855,29.6181186 175.031769,28.916971 174.649679,28.1372635 C173.775583,26.3474829 173.414595,25.6517652 173.207038,25.3973695 C173.200124,25.2550374 172.806351,25.1694301 172.115133,25.1644624 C171.734832,25.1527939 171.361684,25.1661953 171.232691,25.2146021 C171.154247,25.239903 171.093208,25.3580896 171.093208,25.467958 C171.093208,25.5574932 172.415797,28.1995338 173.756508,30.8312923 C173.812897,30.9455508 173.872267,31.0640839 173.934856,31.1867761 C173.967998,31.2502017 174.000783,31.312472 174.033329,31.3739336 C175.254227,33.7646979 176.415278,35.9998441 176.523765,36.1283127 C176.576101,36.1874637 176.73299,36.229632 176.881058,36.2127647 C177.133916,36.1874637 177.194955,36.1028963 177.892253,34.7936022 C178.302001,34.0249855 179.339305,32.0821285 180.193493,30.4686457 C180.302933,30.2631189 180.40999,30.0624445 180.513828,29.8687018 C180.613493,29.6837393 180.851569,29.2433414 181.126244,28.7370918 C181.136973,28.7164121 181.147584,28.6964255 181.158194,28.6760923 C181.409979,28.2151303 181.606806,27.8626502 181.717201,27.676648 C181.768464,27.5950843 181.80411,27.5436737 181.818416,27.5324674 C181.886727,27.6024781 182.856197,29.5241933 184.002704,31.8540736 L185.391101,34.6711411 C185.390624,34.6725274 185.388716,34.6739138 185.388716,34.6754157 C185.388716,34.692283 185.563011,35.0555072 185.780939,35.4693333 C185.807286,35.5203973 185.831487,35.5673022 185.854496,35.61155 L186.138351,36.1874637 L186.139662,36.1874637 L186.164459,36.2380656 L186.349245,36.223971 C186.385606,36.2284767 186.426736,36.2295164 186.475019,36.229632 C186.476211,36.229632 186.477165,36.229632 186.478238,36.229632 L186.482291,36.229632 L186.48706,36.229632 L186.792135,36.229632 L186.812998,36.1878103 L186.818244,36.1874637 L187.073963,35.6713942 C187.094826,35.6321142 187.116881,35.5905236 187.140844,35.5454672 C187.245874,35.3387852 187.317165,35.194489 187.360322,35.093863 L187.489433,34.8358859 C187.519714,34.7737312 187.549399,34.7128472 187.578727,34.6525409 L187.872953,34.05872 C188.130223,33.5375672 188.373067,33.0576583 188.56739,32.6847295 C188.783769,32.2747159 188.942565,31.9939796 189.001101,31.9239688 C189.066074,31.9444175 189.564161,32.8857506 190.139262,34.0502864 L191.194091,36.1874637 L191.199575,36.1878103 L191.2202,36.229632 L191.228903,36.229632 L191.525275,36.229632 L191.534097,36.229632 C191.597759,36.229632 191.648068,36.2325202 191.697782,36.2172703 C191.698139,36.2171548 191.698497,36.2171548 191.698616,36.2170393 C191.831781,36.2013273 191.89735,36.1105212 192.067592,35.7857682 C192.122551,35.6851422 192.187285,35.5617568 192.266207,35.4102978 C192.274313,35.3944703 192.282659,35.3779496 192.290765,35.3620066 C192.540882,34.88152 192.907354,34.1358936 193.477806,32.9774809 C194.039912,31.8308522 194.397205,31.1025552 194.613464,30.6491025 C194.940475,29.9800721 195.229695,29.385327 195.425448,28.9775084 C195.706084,28.3996306 195.957274,27.8799796 196.153981,27.469966 L197.008169,25.670712 L198.481329,25.670712 L199.945668,25.670712 L199.945668,29.5479923 L199.945668,30.7642852 L199.945668,33.2731205 L199.955443,33.2731205 C199.968319,34.8316114 199.991804,35.9108865 200.015409,35.9508596 C200.259446,36.3226331 201.898198,36.3226331 202.142354,35.9508596 C202.170847,35.9025684 202.199339,34.3342575 202.208757,32.2353204 L202.212096,32.2341651 L202.212096,30.7642852 L202.212096,30.316378 C202.235104,29.7202466 202.235462,28.9827072 202.212096,28.4155737 L202.212096,25.670712 L203.937995,25.6538447 L204.01179,25.6526894 C204.142094,25.6585814 204.358472,25.655231 204.696332,25.645411 L205.655192,25.6284282 L205.655192,25.4173561 L205.655192,25.2061685 L205.276918,25.2039734 Z" id="Fill-1" fill="url(#linearGradient-40)" transform="translate(188.374200, 30.699286) rotate(10.600000) translate(-188.374200, -30.699286) "></path>
                            <path d="M35.2769176,246.203973 C34.3920915,246.164693 32.1102845,246.154989 30.5800194,246.178557 C30.5551031,246.178441 30.5294715,246.178326 30.5050321,246.17821 C30.2170047,246.177171 29.9491248,246.176246 29.698889,246.175669 L26.4851653,246.163885 L24.7766713,249.601923 C24.7344686,249.687645 24.6925043,249.773368 24.6503016,249.858975 C24.631227,249.892248 24.6120331,249.9276 24.5936737,249.965147 C24.5709033,250.014593 24.5464639,250.067621 24.5209516,250.122267 C24.2298245,250.714239 23.9453735,251.29073 23.6902498,251.807147 C23.6488816,251.890328 23.6070366,251.974664 23.5650723,252.059925 C23.5022451,252.186314 23.4406101,252.309584 23.3795712,252.43089 C22.8526335,253.459909 22.3596726,254.382642 22.2626302,254.497363 C22.2571463,254.503255 22.2517815,254.5088 22.2488011,254.509725 C22.2327069,254.513537 22.2051678,254.490431 22.1684491,254.444797 C21.8178329,253.886213 20.1830147,250.582882 20.1830147,250.412823 C20.1830147,250.370539 20.5926432,249.48362 21.0981218,248.444665 C21.6038389,247.39716 22.0047646,246.467958 21.9960618,246.375072 C21.9809213,246.279876 21.9101066,246.218761 21.7901746,246.192536 C21.7629932,246.174513 21.7215058,246.163885 21.6735807,246.163885 C21.5853604,246.163885 21.5283748,246.18572 21.5047699,246.220379 C21.3536032,246.33972 21.1603529,246.73795 20.5664155,247.963139 C20.0957481,248.934509 19.8430088,249.373752 19.7558614,249.356885 C19.6861196,249.340017 19.3025996,248.664171 18.9189604,247.85327 C18.7192725,247.441986 18.5701324,247.132021 18.4418553,246.897149 C18.4293375,246.852671 18.3973875,246.78162 18.3436208,246.670712 C18.3043985,246.591228 18.2614805,246.523874 18.2112903,246.466225 C18.2184433,246.404994 18.1576428,246.368372 17.9899049,246.299401 C17.9584317,246.284497 17.9243358,246.271327 17.8882131,246.259196 C17.677438,246.165733 17.4064586,246.16712 16.957727,246.163885 C16.9552235,246.163885 16.9530776,246.163885 16.950574,246.163885 C16.8250389,246.162614 16.7023649,246.164924 16.5907781,246.171048 C16.5773066,246.171741 16.5646697,246.172665 16.5516751,246.173474 C16.5147179,246.175784 16.4791913,246.178672 16.4453338,246.181907 C16.4402075,246.182369 16.4348427,246.182832 16.4297164,246.183409 C16.2647205,246.200161 16.1426427,246.22731 16.1034204,246.265204 C16.0929293,246.275486 16.0842265,246.287039 16.0756429,246.298823 C16.0507266,246.321929 16.0323673,246.348385 16.0202072,246.379116 C15.9564262,246.518675 16.0314135,246.741416 16.2167954,247.093087 C16.2238292,247.106373 16.2303861,247.117464 16.2373007,247.130057 C16.2585213,247.172687 16.2799803,247.215548 16.3039428,247.261991 C16.3393502,247.329114 16.3735654,247.389882 16.4068268,247.447069 C16.6320271,247.930559 16.9326915,248.558461 17.2628025,249.230149 C17.9601008,250.640878 18.5267376,251.86572 18.5267376,251.941738 C18.5267376,252.017757 18.2564734,252.625903 17.9165867,253.310183 C17.6736231,253.80927 17.5012358,254.132175 17.3795156,254.316097 C17.3349286,254.380678 17.2951102,254.431627 17.2614911,254.467325 C17.2260837,254.501522 17.1977102,254.515501 17.1756551,254.509725 C17.0885077,254.492857 16.3039428,252.955393 15.1010467,250.438124 C14.5857922,249.364856 14.2052526,248.56031 13.9084031,247.957131 C13.8424763,247.801051 13.7589054,247.61528 13.6628168,247.414028 C13.3831345,246.838807 13.2380478,246.572281 13.1051212,246.43018 C13.0341873,246.349656 12.9682605,246.307488 12.8869547,246.273753 C12.8614424,246.263933 12.8265119,246.254575 12.7849053,246.245795 C12.5582744,246.13119 12.3086347,246.166657 11.8932838,246.163885 C11.8802892,246.163885 11.8690828,246.164231 11.8563266,246.164231 C11.4810326,246.155105 11.1407882,246.171048 11.0913133,246.223036 C11.0842795,246.22939 11.0785571,246.235975 11.0742653,246.242791 C11.0686621,246.251803 11.0661586,246.261276 11.0648472,246.270865 C10.9241715,246.355432 10.9130844,246.502155 11.0073848,246.753084 C11.0109613,246.795599 11.0488722,246.875199 11.1255285,247.020304 C11.1473451,247.065014 11.1704732,247.111341 11.1959855,247.160672 L11.3414299,247.442448 C11.3757643,247.513267 11.3912624,247.57496 11.3636042,247.688641 C11.2900475,247.88146 11.1262438,248.239369 10.9195221,248.653889 C10.8159228,248.85387 10.6909837,249.09186 10.5416053,249.376178 L9.56593606,251.232157 C8.52863184,253.200431 7.63951394,254.805364 7.58717783,254.813798 C7.50932934,254.813798 6.92874418,253.727013 5.88571756,251.638705 C5.84685293,251.558527 5.80691535,251.476733 5.76542795,251.392743 C5.7393195,251.341563 5.71344948,251.291193 5.68769868,251.241399 C5.37785457,250.618119 5.03176858,249.916971 4.64967917,249.137263 C3.77558257,247.347483 3.4145945,246.651765 3.20703829,246.39737 C3.20012372,246.255037 2.80635107,246.16943 2.11513284,246.164462 C1.73483168,246.152794 1.36168351,246.166195 1.23269108,246.214602 C1.15424651,246.239903 1.09320758,246.35809 1.09320758,246.467958 C1.09320758,246.557493 2.41579727,249.199534 3.7565079,251.831292 C3.81289739,251.945551 3.87226729,252.064084 3.93485604,252.186776 C3.96799827,252.250202 4.00078285,252.312472 4.033329,252.373934 C5.25422688,254.764698 6.415278,256.999844 6.52376516,257.128313 C6.57610128,257.187464 6.73299041,257.229632 6.88105751,257.212765 C7.13391606,257.187464 7.19495499,257.102896 7.89225328,255.793602 C8.30200096,255.024985 9.33930517,253.082128 10.1934926,251.468646 C10.3029335,251.263119 10.4099901,251.062444 10.5138278,250.868702 C10.6134929,250.683739 10.8515686,250.243341 11.1262438,249.737092 C11.1369733,249.716412 11.1475836,249.696426 11.1581939,249.676092 C11.4099795,249.21513 11.6068062,248.86265 11.7172008,248.676648 C11.768464,248.595084 11.8041097,248.543674 11.8184157,248.532467 C11.8867269,248.602478 12.8561968,250.524193 14.0027035,252.854074 L15.3911008,255.671141 C15.3906239,255.672527 15.3887165,255.673914 15.3887165,255.675416 C15.3887165,255.692283 15.5630112,256.055507 15.7809393,256.469333 C15.8072862,256.520397 15.8314872,256.567302 15.854496,256.61155 L16.1383509,257.187464 L16.1396623,257.187464 L16.1644593,257.238066 L16.3492452,257.223971 C16.3856062,257.228477 16.426736,257.229516 16.4750187,257.229632 C16.4762109,257.229632 16.4771646,257.229632 16.4782376,257.229632 L16.482291,257.229632 L16.4870596,257.229632 L16.7921351,257.229632 L16.812998,257.18781 L16.8182435,257.187464 L17.0739633,256.671394 C17.0948262,256.632114 17.1168813,256.590524 17.1408438,256.545467 C17.2458737,256.338785 17.3171653,256.194489 17.3603217,256.093863 L17.4894334,255.835886 C17.5197144,255.773731 17.5493993,255.712847 17.5787266,255.652541 L17.8729534,255.05872 C18.1302229,254.537567 18.3730673,254.057658 18.5673904,253.68473 C18.7837687,253.274716 18.9425653,252.99398 19.0011007,252.923969 C19.0660738,252.944418 19.564161,253.885751 20.1392622,255.050286 L21.1940913,257.187464 L21.1995752,257.18781 L21.2201997,257.229632 L21.2289025,257.229632 L21.5252752,257.229632 L21.5340972,257.229632 C21.5977589,257.229632 21.6480683,257.23252 21.6977817,257.21727 C21.6981393,257.217155 21.698497,257.217155 21.6986162,257.217039 C21.8317812,257.201327 21.8973504,257.110521 22.0675918,256.785768 C22.1225507,256.685142 22.1872853,256.561757 22.2662067,256.410298 C22.2743135,256.39447 22.2826586,256.37795 22.2907654,256.362007 C22.5408819,255.88152 22.907354,255.135894 23.4778057,253.977481 C24.0399123,252.830852 24.3972047,252.102555 24.6134637,251.649102 C24.940475,250.980072 25.2296946,250.385327 25.4254484,249.977508 C25.7060844,249.399631 25.9572739,248.87998 26.1539814,248.469966 L27.0081689,246.670712 L28.4813292,246.670712 L29.9456675,246.670712 L29.9456675,250.547992 L29.9456675,251.764285 L29.9456675,254.27312 L29.9554433,254.27312 C29.9683187,255.831611 29.9918044,256.910886 30.0154093,256.95086 C30.2594458,257.322633 31.8981981,257.322633 32.1423538,256.95086 C32.1708466,256.902568 32.1993394,255.334258 32.2087575,253.23532 L32.2120956,253.234165 L32.2120956,251.764285 L32.2120956,251.316378 C32.2351044,250.720247 32.235462,249.982707 32.2120956,249.415574 L32.2120956,246.670712 L33.9379952,246.653845 L34.0117904,246.652689 C34.1420942,246.658581 34.3584724,246.655231 34.6963325,246.645411 L35.6551921,246.628428 L35.6551921,246.417356 L35.6551921,246.206168 L35.2769176,246.203973 Z" id="Fill-1" fill="url(#linearGradient-40)" transform="translate(18.374200, 251.699286) scale(-1, -1) rotate(10.600000) translate(-18.374200, -251.699286) "></path>
                            <g id="Fill-52">
                                <use fill="black" fill-opacity="1" filter="url(#filter-42)" xlink:href="#path-41"></use>
                                <use fill="#002A69" fill-rule="evenodd" xlink:href="#path-41"></use>
                                <use fill="black" fill-opacity="1" filter="url(#filter-43)" xlink:href="#path-41"></use>
                            </g>
                            <g id="Fill-54">
                                <use fill="black" fill-opacity="1" filter="url(#filter-45)" xlink:href="#path-44"></use>
                                <use fill="#002A69" fill-rule="evenodd" xlink:href="#path-44"></use>
                                <use fill="black" fill-opacity="1" filter="url(#filter-46)" xlink:href="#path-44"></use>
                            </g>
                        </g>
                    </g>
                </g>
            </g>
        </g>
    </g>
</svg>