<?xml version="1.0" encoding="UTF-8"?>
<svg width="82px" height="82px" viewBox="0 0 82 82" version="1.1" xmlns="http://www.w3.org/2000/svg" xmlns:xlink="http://www.w3.org/1999/xlink">
    <!-- Generator: Sketch 50.2 (55047) - http://www.bohemiancoding.com/sketch -->
    <title>Group 13</title>
    <desc>Created with Sketch.</desc>
    <defs></defs>
    <g id="Main" stroke="none" stroke-width="1" fill="none" fill-rule="evenodd">
        <g id="1.01-Landing" transform="translate(-649.000000, -2698.000000)">
            <g id="Benefits" transform="translate(0.000000, 2340.000000)">
                <g id="Group-48" transform="translate(535.000000, 358.000000)">
                    <g id="Group-13" transform="translate(114.000000, 0.000000)">
                        <!-- <circle id="Oval" fill="" style="mix-blend-mode: overlay;" cx="41" cy="41" r="40"></circle> -->
                        <path d="M62.944076,34.8934811 C58.3278631,33.6994828 50.3450212,33.6365928 45.7138748,35.1044816 C44.1515657,35.598487 42.9445863,36.1872832 41.0001549,36.2018663 C39.0552843,36.1872832 37.8491834,35.598487 36.2868742,35.1044816 C31.6552886,33.6365928 23.6728859,33.6994828 19.0557947,34.8934811 C18.9762956,35.6818846 18.9358873,36.5632559 19.2613501,37.3097327 C19.5029216,37.8638938 20.0115396,38.0452722 20.3150413,38.3506076 C20.8214631,38.8632978 21.5751664,40.9951773 21.7306506,41.6012909 C22.0214149,42.7424252 22.2673787,43.9323221 22.7584278,45.0023633 C22.9947287,45.5136863 23.289446,45.9953871 23.7190041,46.3576882 C24.8161782,47.2864548 26.7496291,47.8064365 28.380896,47.9349509 C34.2796342,48.3993342 36.5398655,46.3531309 38.2124191,42.5710728 C38.9046315,41.0093047 39.4255476,39.0182441 40.7467244,38.8901855 C40.8350078,38.881071 40.918899,38.8797039 41.0005941,38.8806153 C41.0814108,38.8797039 41.1661805,38.8815268 41.2549031,38.8901855 C42.5756407,39.0182441 43.0961176,41.0093047 43.7887691,42.5710728 C45.4604443,46.3531309 47.7219933,48.3988785 53.6207315,47.9349509 C55.2511199,47.8064365 57.1858885,47.2864548 58.2821841,46.3576882 C58.711303,45.9953871 59.0064596,45.5136863 59.2423213,45.0023633 C59.7329311,43.9323221 59.9802126,42.7424252 60.2714161,41.6012909 C60.4255827,40.9951773 61.1806036,38.8632978 61.6870254,38.3506076 C61.9896487,38.0452722 62.4991451,37.8638938 62.7398382,37.3097327 C63.0648617,36.5632559 63.0231357,35.6818846 62.944076,34.8934811 Z M37.2997179,40.4674482 C37.0669307,42.7082459 35.3113643,45.7365356 33.3467288,46.4620491 C30.7970508,47.403576 25.3054704,47.0125644 24.0229451,45.093964 C22.9872619,43.5463234 21.7605177,37.5868133 23.5147664,36.0505658 C23.9386147,35.6800617 24.5412259,35.7005693 25.1372488,35.6294763 C27.4809321,35.3482942 30.0328062,35.5620291 32.0290657,35.8404768 C34.5589788,36.1927518 37.6822794,36.7883838 37.2997179,40.4674482 Z M57.9773647,45.0944197 C56.6930825,47.0130201 51.2015022,47.4040318 48.6522634,46.4625048 C46.6889455,45.7365356 44.9316222,42.7087016 44.6992743,40.4679039 C44.3167128,36.7888396 47.4400134,36.1927518 49.9694872,35.8409325 C51.9666252,35.5624848 54.5171816,35.34875 56.8626218,35.629932 C57.4573271,35.701025 58.0603775,35.6805174 58.4833473,36.0510215 C60.239353,37.5868133 59.0130479,43.5463234 57.9773647,45.0944197 Z" id="Shape" fill="#002A69" fill-rule="nonzero"></path>
                        <circle id="Oval-3" fill="#00265F" cx="41" cy="1" r="1"></circle>
                        <circle id="Oval-3" fill="#00265F" cx="41" cy="81" r="1"></circle>
                        <circle id="Oval-3" fill="#00265F" cx="41" cy="1" r="1"></circle>
                        <circle id="Oval-3" fill="#00265F" cx="41" cy="81" r="1"></circle>
                        <circle id="Oval-3" fill="#00265F" transform="translate(51.352762, 2.362967) rotate(-345.000000) translate(-51.352762, -2.362967) " cx="51.3527618" cy="2.36296695" r="1"></circle>
                        <circle id="Oval-3" fill="#00265F" transform="translate(30.647238, 79.637033) rotate(-345.000000) translate(-30.647238, -79.637033) " cx="30.6472382" cy="79.6370331" r="1"></circle>
                        <circle id="Oval-3" fill="#00265F" transform="translate(61.000000, 6.358984) rotate(-330.000000) translate(-61.000000, -6.358984) " cx="61" cy="6.35898385" r="1"></circle>
                        <circle id="Oval-3" fill="#00265F" transform="translate(21.000000, 75.641016) rotate(-330.000000) translate(-21.000000, -75.641016) " cx="21" cy="75.6410162" r="1"></circle>
                        <circle id="Oval-3" fill="#00265F" transform="translate(69.284271, 12.715729) rotate(-315.000000) translate(-69.284271, -12.715729) " cx="69.2842712" cy="12.7157288" r="1"></circle>
                        <circle id="Oval-3" fill="#00265F" transform="translate(12.715729, 69.284271) rotate(-315.000000) translate(-12.715729, -69.284271) " cx="12.7157288" cy="69.2842712" r="1"></circle>
                        <circle id="Oval-3" fill="#00265F" transform="translate(75.641016, 21.000000) rotate(-300.000000) translate(-75.641016, -21.000000) " cx="75.6410162" cy="21" r="1"></circle>
                        <circle id="Oval-3" fill="#00265F" transform="translate(6.358984, 61.000000) rotate(-300.000000) translate(-6.358984, -61.000000) " cx="6.35898385" cy="61" r="1"></circle>
                        <circle id="Oval-3" fill="#00265F" transform="translate(79.637033, 30.647238) rotate(-285.000000) translate(-79.637033, -30.647238) " cx="79.6370331" cy="30.6472382" r="1"></circle>
                        <circle id="Oval-3" fill="#00265F" transform="translate(2.362967, 51.352762) rotate(-285.000000) translate(-2.362967, -51.352762) " cx="2.36296695" cy="51.3527618" r="1"></circle>
                        <circle id="Oval-3" fill="#00265F" transform="translate(81.000000, 41.000000) rotate(-270.000000) translate(-81.000000, -41.000000) " cx="81" cy="41" r="1"></circle>
                        <circle id="Oval-3" fill="#00265F" transform="translate(1.000000, 41.000000) rotate(-270.000000) translate(-1.000000, -41.000000) " cx="1" cy="41" r="1"></circle>
                    </g>
                </g>
            </g>
        </g>
    </g>
</svg>
