<?xml version="1.0" encoding="utf-8"?>
<!-- Generator: Adobe Illustrator 21.0.2, SVG Export Plug-In . SVG Version: 6.00 Build 0)  -->
<svg version="1.1" id="Layer_1" xmlns="http://www.w3.org/2000/svg" xmlns:xlink="http://www.w3.org/1999/xlink" x="0px" y="0px"
	 viewBox="0 0 82 82" style="enable-background:new 0 0 82 82;" xml:space="preserve">
<style type="text/css">
	.st0{fill:#00265F;}
</style>
<title>Group 13</title>
<desc>Created with Sketch.</desc>
<g id="Main">
	<g id="_x31_.01-Landing" transform="translate(-1069.000000, -2698.000000)">
		<g id="Benefits" transform="translate(0.000000, 2340.000000)">
			<g id="Group-47" transform="translate(955.000000, 358.000000)">
				<g id="Group-13" transform="translate(114.000000, 0.000000)">
					<g id="noun_Globe_1810387" transform="translate(25.000000, 25.000000)">
						<path id="Shape" class="st0" d="M16,0c8.8,0,16,7.2,16,16c0,8.8-7.2,16-16,16S0,24.8,0,16C0,7.2,7.2,0,16,0z M16.7,1.6v4.7
							h4.5c-0.1-0.3-0.2-0.5-0.4-0.8C19.7,3.3,18.3,1.9,16.7,1.6z M15.3,1.6c-1.5,0.3-3,1.7-4.1,4c-0.1,0.2-0.2,0.5-0.4,0.8h4.5V1.6
							z M20.3,2.1c0.7,0.8,1.3,1.7,1.9,2.7c0.2,0.5,0.4,0.9,0.7,1.5h4C25.1,4.4,22.8,2.9,20.3,2.1z M11.7,2.1
							C9.2,2.9,6.9,4.4,5.2,6.3h4c0.2-0.5,0.4-1,0.7-1.5C10.4,3.8,11,2.9,11.7,2.1z M28,7.8h-4.6c0.4,1.4,0.8,2.9,1,4.5H30
							C29.6,10.7,28.9,9.2,28,7.8z M21.8,7.8h-5.1v4.5h6.1C22.6,10.7,22.3,9.2,21.8,7.8z M15.3,7.8h-5.1c-0.5,1.3-0.8,2.8-1,4.5h6.1
							V7.8z M8.6,7.8H4c-0.9,1.3-1.6,2.8-2,4.5h5.7C7.9,10.7,8.2,9.2,8.6,7.8z M30.3,13.8h-5.9c0.1,0.7,0.1,1.5,0.1,2.2
							c0,0.8,0,1.5-0.1,2.2h5.9c0.1-0.7,0.2-1.5,0.2-2.2C30.5,15.2,30.5,14.5,30.3,13.8z M23,13.8h-6.2v4.5H23
							c0.1-0.7,0.1-1.5,0.1-2.2C23.1,15.2,23,14.5,23,13.8z M15.3,13.8H9C9,14.5,8.9,15.2,8.9,16c0,0.8,0,1.5,0.1,2.2h6.2V13.8z
							 M7.5,13.8H1.7c-0.1,0.7-0.2,1.5-0.2,2.2c0,0.8,0.1,1.5,0.2,2.2h5.9c-0.1-0.7-0.1-1.5-0.1-2.2C7.4,15.2,7.5,14.5,7.5,13.8z
							 M30,19.7h-5.7c-0.2,1.6-0.5,3.1-1,4.5H28C28.9,22.8,29.6,21.3,30,19.7z M22.8,19.7h-6.1v4.5h5.1
							C22.3,22.8,22.6,21.3,22.8,19.7z M15.3,19.7H9.2c0.2,1.6,0.6,3.1,1,4.5h5.1V19.7z M7.7,19.7H2c0.4,1.6,1.1,3.1,2,4.5h4.6
							C8.2,22.8,7.9,21.3,7.7,19.7z M26.8,25.7h-4c-0.2,0.5-0.4,1-0.7,1.4c-0.5,1.1-1.2,2-1.9,2.7C22.9,29.1,25.1,27.6,26.8,25.7z
							 M21.2,25.7h-4.5v4.8c1.5-0.3,3-1.7,4.1-4C21,26.2,21.1,25.9,21.2,25.7z M15.3,25.7h-4.5c0.1,0.3,0.2,0.5,0.4,0.8
							c1.2,2.3,2.6,3.6,4.1,4V25.7z M9.2,25.7h-4c1.7,1.9,4,3.4,6.5,4.2c-0.7-0.8-1.3-1.7-1.9-2.7C9.6,26.7,9.4,26.2,9.2,25.7z"/>
					</g>
					<g id="Group-62">
						<circle id="Oval-3" class="st0" cx="41" cy="1" r="1"/>
						<circle id="Oval-3_1_" class="st0" cx="41" cy="81" r="1"/>
						<circle id="Oval-3_2_" class="st0" cx="41" cy="1" r="1"/>
						<circle id="Oval-3_3_" class="st0" cx="41" cy="81" r="1"/>
						
							<ellipse id="Oval-3_4_" transform="matrix(0.2588 -0.9659 0.9659 0.2588 35.7792 51.3543)" class="st0" cx="51.4" cy="2.4" rx="1" ry="1"/>
						
							<ellipse id="Oval-3_5_" transform="matrix(0.2588 -0.9659 0.9659 0.2588 -54.2083 88.6284)" class="st0" cx="30.6" cy="79.6" rx="1" ry="1"/>
						
							<ellipse id="Oval-3_6_" transform="matrix(0.5 -0.866 0.866 0.5 24.993 56.007)" class="st0" cx="61" cy="6.4" rx="1" ry="1"/>
						
							<ellipse id="Oval-3_7_" transform="matrix(0.5 -0.866 0.866 0.5 -55.007 56.007)" class="st0" cx="21" cy="75.6" rx="1" ry="1"/>
						
							<ellipse id="Oval-3_8_" transform="matrix(0.7071 -0.7071 0.7071 0.7071 11.3015 52.7157)" class="st0" cx="69.3" cy="12.7" rx="1" ry="1"/>
						
							<ellipse id="Oval-3_9_" transform="matrix(0.7071 -0.7071 0.7071 0.7071 -45.267 29.2843)" class="st0" cx="12.7" cy="69.3" rx="1" ry="1"/>
						
							<ellipse id="Oval-3_10_" transform="matrix(0.866 -0.5 0.5 0.866 -0.366 40.634)" class="st0" cx="75.6" cy="21" rx="1" ry="1"/>
						
							<ellipse id="Oval-3_11_" transform="matrix(0.866 -0.5 0.5 0.866 -29.6481 11.3519)" class="st0" cx="6.4" cy="61" rx="1" ry="1"/>
						
							<ellipse id="Oval-3_12_" transform="matrix(0.9659 -0.2588 0.2588 0.9659 -5.2185 21.6559)" class="st0" cx="79.6" cy="30.6" rx="1" ry="1"/>
						
							<ellipse id="Oval-3_13_" transform="matrix(0.9659 -0.2588 0.2588 0.9659 -13.2106 2.3614)" class="st0" cx="2.4" cy="51.4" rx="1" ry="1"/>
						<circle id="Oval-3_14_" class="st0" cx="81" cy="41" r="1"/>
						<circle id="Oval-3_15_" class="st0" cx="1" cy="41" r="1"/>
					</g>
				</g>
			</g>
		</g>
	</g>
</g>
</svg>
