
<svg width="30px" height="28px" viewBox="0 0 30 28" version="1.1" xmlns="http://www.w3.org/2000/svg" xmlns:xlink="http://www.w3.org/1999/xlink">
    <!-- Generator: Sketch 47.1 (45422) - http://www.bohemiancoding.com/sketch -->
    <desc>Created with Sketch.</desc>
    <defs>
        <path d="M29.2432,1.01 L28.5359,1.01 C28.2609,1.01 28.01,1.17 27.8892,1.41 C20.893,15.73 17.351,22.9 17.2634,22.91 C17.066,22.91 15.5942,20.16 12.9499,14.87 C12.8514,14.67 12.7501,14.46 12.6449,14.25 C12.5787,14.12 12.5132,13.99 12.4479,13.87 C11.6624,12.29 10.785,10.51 9.8163,8.54 C7.6003,4.01 6.6851,2.24 6.1589,1.6 C6.1414,1.24 5.1431,1.02 3.3908,1.01 C2.4266,0.98 1.4806,1.01 1.1536,1.14 C0.9547,1.2 0.8,1.5 0.8,1.78 C0.8,2.01 4.153,8.7 7.552,15.36 C7.6949,15.65 7.8454,15.95 8.0041,16.26 C8.0881,16.42 8.1712,16.58 8.2537,16.74 C11.3489,22.79 14.2924,28.45 14.5675,28.78 C14.7001,28.93 15.0979,29.03 15.4733,28.99 C16.1143,28.93 16.2691,28.71 18.0368,25.4 C18.7132,24.13 22.6606,16.34 29.8788,2.04 C30.0559,1.69 29.915,1.26 29.5641,1.09 C29.4646,1.04 29.3547,1.01 29.2432,1.01 Z" id="path-1"></path>
        <linearGradient x1="48.9444444%" y1="26.2882382%" x2="48.9444444%" y2="34.6638312%" id="linearGradient-3">
            <stop stop-color="#CC9C58" offset="0%"></stop>
            <stop stop-color="#FEEDB7" offset="38%"></stop>
            <stop stop-color="#BD963D" offset="54%"></stop>
            <stop stop-color="#FEF9B6" offset="100%"></stop>
        </linearGradient>
        <path d="M29.2432,1.01 L28.5359,1.01 C28.2609,1.01 28.01,1.17 27.8892,1.41 C20.893,15.73 17.351,22.9 17.2634,22.91 C17.066,22.91 15.5942,20.16 12.9499,14.87 C12.8514,14.67 12.7501,14.46 12.6449,14.25 C12.5787,14.12 12.5132,13.99 12.4479,13.87 C11.6624,12.29 10.785,10.51 9.8163,8.54 C7.6003,4.01 6.6851,2.24 6.1589,1.6 C6.1414,1.24 5.1431,1.02 3.3908,1.01 C2.4266,0.98 1.4806,1.01 1.1536,1.14 C0.9547,1.2 0.8,1.5 0.8,1.78 C0.8,2.01 4.153,8.7 7.552,15.36 C7.6949,15.65 7.8454,15.95 8.0041,16.26 C8.0881,16.42 8.1712,16.58 8.2537,16.74 C11.3489,22.79 14.2924,28.45 14.5675,28.78 C14.7001,28.93 15.0979,29.03 15.4733,28.99 C16.1143,28.93 16.2691,28.71 18.0368,25.4 C18.7132,24.13 22.6606,16.34 29.8788,2.04 C30.0559,1.69 29.915,1.26 29.5641,1.09 C29.4646,1.04 29.3547,1.01 29.2432,1.01 Z" id="path-4"></path>
        <linearGradient x1="48.9444444%" y1="26.5172583%" x2="51%" y2="26.5172583%" id="linearGradient-6">
            <stop stop-color="#CC9C58" offset="0%"></stop>
            <stop stop-color="#FEEDB7" offset="38%"></stop>
            <stop stop-color="#BD963D" offset="54%"></stop>
            <stop stop-color="#FEF9B6" offset="100%"></stop>
        </linearGradient>
    </defs>
    <g id="Page-1" stroke="none" stroke-width="1" fill="none" fill-rule="evenodd">
        <g id="Desktop-HD" transform="translate(-1268.000000, -780.000000)">
            <g id="Group-3780" transform="translate(1268.000000, 779.000000)">
                <g id="Group-3776">
                    <mask id="mask-2" fill="white">
                        <use xlink:href="#path-1"></use>
                    </mask>
                    <g id="Clip-3775"></g>
                    <polygon id="Fill-3774" fill="url(#linearGradient-3)" mask="url(#mask-2)" points="-704 9013 736 9013 736 -3213 -704 -3213"></polygon>
                </g>
                <g id="Group-3779">
                    <mask id="mask-5" fill="white">
                        <use xlink:href="#path-4"></use>
                    </mask>
                    <g id="Clip-3778"></g>
                    <polygon id="Fill-3777" fill="url(#linearGradient-6)" mask="url(#mask-5)" points="-704 9013 736 9013 736 -3213 -704 -3213"></polygon>
                </g>
            </g>
        </g>
    </g>
</svg>
