<?xml version="1.0" encoding="UTF-8"?>
<svg width="62px" height="20px" viewBox="0 0 62 20" version="1.1" xmlns="http://www.w3.org/2000/svg" xmlns:xlink="http://www.w3.org/1999/xlink">
    <!-- Generator: Sketch 50.2 (55047) - http://www.bohemiancoding.com/sketch -->
    <title>Logo / Mark white</title>
    <desc>Created with Sketch.</desc>
    <defs>
        <linearGradient x1="0%" y1="100%" x2="100%" y2="100%" id="linearGradient-1">
            <stop stop-color="#CC9C58" offset="0%"></stop>
            <stop stop-color="#FFEEB8" offset="38.2135116%"></stop>
            <stop stop-color="#BB943B" offset="52.3911669%"></stop>
            <stop stop-color="#FFFBB9" offset="100%"></stop>
        </linearGradient>
    </defs>
    <g id="Symbols" stroke="none" stroke-width="1" fill="none" fill-rule="evenodd">
        <g id="Navigation-/-Default" transform="translate(-115.000000, -20.000000)" fill="url(#linearGradient-1)">
            <g id="Navigation">
                <g id="Logo-/-Gold" transform="translate(115.000000, 20.000000)">
                    <path d="M61.3214215,0.0784775055 C59.7341511,0.00755939674 55.6408666,-0.00996154778 52.8957569,0.0325893175 C52.8510602,0.0323807348 52.8050802,0.0321721521 52.7612389,0.0319635695 C52.2445526,0.0300863254 51.7640087,0.028417664 51.3151161,0.0273747507 L45.5500864,0.00609931803 L42.4852557,6.21331108 C42.4095492,6.36807942 42.3342704,6.52284776 42.2585639,6.67740752 C42.2243463,6.73747933 42.1899148,6.80130563 42.1569803,6.869095 C42.116133,6.95836838 42.0722917,7.05410783 42.0265256,7.15276744 C41.5042789,8.22154505 40.9940085,9.26237259 40.5363476,10.1947371 C40.4621381,10.3449167 40.3870732,10.497182 40.3117944,10.651116 C40.1990901,10.8793055 40.0885243,11.1018632 39.9790279,11.320875 C39.0337658,13.1787209 38.1494538,14.8446707 37.9753716,15.0517933 C37.965534,15.062431 37.9559103,15.0724429 37.9505638,15.0741116 C37.9216927,15.0809948 37.872291,15.0392783 37.806422,14.9568881 C37.1774591,13.9483909 34.2447941,7.98438655 34.2447941,7.67735286 C34.2447941,7.6010116 34.9796177,5.99972242 35.886385,4.12393844 C36.7935801,2.23271935 37.5127919,0.555088913 37.4971801,0.387388444 C37.4700199,0.215516321 37.3429869,0.105176088 37.1278436,0.0578278209 C37.0790834,0.0252889239 37.0046601,0.00609931803 36.9186883,0.00609931803 C36.7604317,0.00609931803 36.6582065,0.0455214432 36.6158622,0.108096245 C36.3446875,0.323562146 35.9980201,1.04254662 34.9325685,3.25456586 C34.0882484,5.00832898 33.6348647,5.8013603 33.4785329,5.77090723 C33.3534247,5.74045416 32.6654364,4.52024552 31.9772342,3.05620374 C31.6190184,2.31364943 31.3514793,1.75402212 31.1213657,1.32997354 C31.0989103,1.24966921 31.0415958,1.12139087 30.9451449,0.921151504 C30.8747848,0.777646625 30.7977952,0.656042926 30.70776,0.551960173 C30.7205916,0.441411356 30.6115229,0.375290649 30.3106216,0.250766793 C30.2541625,0.223859628 30.1929985,0.200081204 30.1281988,0.178180023 C29.750094,0.00943664079 29.2639897,0.0119396329 28.4590199,0.00609931803 C28.4545288,0.00609931803 28.4506794,0.00609931803 28.4461883,0.00609931803 C28.2209935,0.00380490863 28.0009313,0.00797656208 27.8007582,0.0190314437 C27.776592,0.0202829398 27.7539228,0.0219516012 27.730612,0.0234116799 C27.6643154,0.0275833333 27.600585,0.0327979001 27.5398487,0.038638215 C27.5306527,0.0394725457 27.521029,0.0403068764 27.511833,0.0413497897 C27.2158505,0.0715942773 26.9968576,0.120611205 26.9264976,0.189026322 C26.9076779,0.20759018 26.8920661,0.228448447 26.8766682,0.24972388 C26.8319714,0.291440414 26.7990369,0.339205846 26.7772232,0.394688837 C26.662808,0.646656706 26.7973261,1.0488041 27.1298787,1.68372976 C27.1424964,1.70771676 27.1542588,1.7277407 27.1666626,1.75047621 C27.2047298,1.82744322 27.2432246,1.90482739 27.2862105,1.98867762 C27.349727,2.10986416 27.4111049,2.21957864 27.4707719,2.32282706 C27.8747538,3.19574555 28.4141093,4.32939238 29.0062882,5.54209204 C30.2571566,8.08909505 31.2736341,10.3004886 31.2736341,10.4377359 C31.2736341,10.5749833 30.788813,11.6729625 30.1790976,12.9083977 C29.7432505,13.8094749 29.4340086,14.3924634 29.2156573,14.724527 C29.1356736,14.8411248 29.0642443,14.9331097 29.0039357,14.9975618 C28.9404192,15.0593022 28.8895205,15.0845407 28.8499564,15.0741116 C28.6936246,15.0436585 27.2862105,12.2678403 25.128361,7.72303246 C24.2040571,5.78529943 23.5214153,4.3327297 22.9889034,3.24371956 C22.8706387,2.96192437 22.7207227,2.62652344 22.5483514,2.26317242 C22.0466353,1.22463929 21.7863674,0.743439066 21.5479133,0.486882379 C21.4206665,0.341500256 21.3024018,0.26536758 21.1565491,0.20446144 C21.110783,0.186731913 21.048122,0.169836716 20.9734848,0.153984433 C20.5669365,-0.0529295784 20.1191132,0.0111053022 19.3740243,0.00609931803 C19.3507135,0.00609931803 19.3306106,0.00672506605 19.3077276,0.00672506605 C18.6344957,-0.0097529651 18.0241386,0.0190314437 17.9353866,0.112893646 C17.9227689,0.124365693 17.9125036,0.136254906 17.9048046,0.148561284 C17.8947532,0.164830732 17.8902621,0.181934511 17.8879097,0.199246873 C17.6355546,0.351929389 17.6156656,0.616829384 17.784829,1.06987095 C17.7912448,1.14662937 17.8592524,1.29034283 17.9967645,1.55232267 C18.0359009,1.63304417 18.0773898,1.71668582 18.1231559,1.80575062 L18.3840653,2.31448376 C18.4456571,2.44234494 18.4734589,2.55372808 18.4238433,2.75897343 C18.2918916,3.10709791 17.9980477,3.75328703 17.6272141,4.50168166 C17.4413695,4.86273827 17.217244,5.29241858 16.9492772,5.80574053 L15.1990452,9.15662117 C13.3382475,12.7102442 11.7432781,15.6078747 11.6493934,15.6231012 C11.5097427,15.6231012 10.4682435,13.660964 8.59718049,9.8906236 C8.52746207,9.74586722 8.45581889,9.59819069 8.38139554,9.44655109 C8.33456016,9.35414896 8.28815249,9.26320692 8.24195868,9.17330779 C7.68613599,8.04800427 7.0652998,6.78211603 6.37987782,5.37439157 C4.81185475,2.1430288 4.16428603,0.886943945 3.79195541,0.4276449 C3.77955151,0.170671047 3.07317124,0.0161112863 1.83320973,0.00714223139 C1.15099566,-0.0139246186 0.481613196,0.0102709715 0.250216447,0.0976671114 C0.109496428,0.143346717 0,0.356726791 0,0.555088913 C0,0.716740484 2.37256518,5.48681763 4.77763712,10.2383309 C4.878793,10.4446192 4.98529539,10.658625 5.097572,10.8801398 C5.15702514,10.9946517 5.21583669,11.1070777 5.27422053,11.2180437 C7.46436296,15.5344536 9.54714755,19.5699025 9.74176035,19.8018465 C9.83564498,19.9086408 10.117085,19.9847735 10.3826994,19.9543204 C10.8362969,19.9086408 10.9457933,19.7559583 12.1966617,17.3920908 C12.9316993,16.0043903 14.792497,12.4966555 16.3248054,9.5835899 C16.521129,9.21252133 16.7131755,8.85021323 16.8994478,8.50042008 C17.0782349,8.16647923 17.5053137,7.37136208 17.9980477,6.4573528 C18.0172951,6.42001651 18.0363286,6.3839317 18.0553622,6.34722115 C18.507035,5.51497629 18.8601182,4.87859055 19.0581527,4.54277245 C19.1501126,4.39551308 19.2140568,4.30269379 19.2397201,4.28246128 C19.362262,4.40886238 21.1013732,7.87842655 23.1580668,12.0849133 L25.6486829,17.1709932 C25.6478274,17.1734962 25.6444057,17.1759992 25.6444057,17.1787108 C25.6444057,17.2091638 25.9570693,17.8649478 26.3480058,18.6120909 C26.3952689,18.7042844 26.4386825,18.788969 26.4799575,18.8688562 L26.9891587,19.9086408 L26.9915111,19.9086408 L27.0359941,20 L27.3674774,19.9745529 C27.4327047,19.9826876 27.5064865,19.9845649 27.5930999,19.9847735 C27.5952385,19.9847735 27.5969494,19.9847735 27.5988741,19.9847735 L27.6061454,19.9847735 L27.6146998,19.9847735 L28.1619681,19.9847735 L28.1993936,19.9092665 L28.2088035,19.9086408 L28.6675336,18.976902 C28.7049591,18.9059839 28.7445233,18.8308941 28.7875092,18.7495469 C28.97592,18.3763925 29.1038084,18.1158727 29.1812258,17.9341972 L29.4128364,17.4684321 C29.4671569,17.3562146 29.5204081,17.2462916 29.5730177,17.1374114 L30.1008247,16.0652965 C30.5623351,15.12438 30.9979683,14.2579276 31.3465605,13.5846227 C31.7347168,12.8443628 32.0195786,12.3375069 32.1245839,12.2111058 C32.2411377,12.248025 33.1346457,13.9475566 34.1663074,16.0500699 L36.0585425,19.9086408 L36.0683801,19.9092665 L36.1053779,19.9847735 L36.1209897,19.9847735 L36.6526462,19.9847735 L36.6684718,19.9847735 C36.7826732,19.9847735 36.8729222,19.989988 36.9621019,19.9624551 C36.9627435,19.9622465 36.9633851,19.9622465 36.9635989,19.962038 C37.2024808,19.9336707 37.3201039,19.7697247 37.6254963,19.1833988 C37.7240858,19.0017233 37.8402119,18.778957 37.9817874,18.5055051 C37.9963299,18.4769293 38.0113001,18.447102 38.0258426,18.4183176 C38.4745213,17.5508223 39.1319276,16.2046297 40.1552487,14.1131712 C41.1635996,12.0429882 41.8045387,10.728083 42.1924811,9.90939604 C42.7790996,8.70149378 43.2979245,7.62771018 43.649083,6.89141335 C44.1525099,5.84808282 44.6031134,4.90987796 44.9559827,4.16961805 L46.4882912,0.921151504 L49.1309618,0.921151504 L51.7578068,0.921151504 L51.7578068,7.92139458 L51.7578068,10.117353 L51.7578068,14.6469343 L51.7753433,14.6469343 C51.7984402,17.4607145 51.8405707,19.4092939 51.882915,19.4814635 C52.3206868,20.1526825 55.2604093,20.1526825 55.698395,19.4814635 C55.7495076,19.3942759 55.8006202,16.5627661 55.8175152,12.7732361 L55.8235032,12.7711503 L55.8235032,10.117353 L55.8235032,9.30867794 C55.8647783,8.23239135 55.8654198,6.90079957 55.8235032,5.87686723 L55.8235032,0.921151504 L58.9195575,0.890698433 L59.051937,0.888612607 C59.2856862,0.899250323 59.6738425,0.893201425 60.2799223,0.875471898 L62,0.844810245 L62,0.463729702 L62,0.0824405763 L61.3214215,0.0784775055 Z" id="Fill-1"></path>
                </g>
            </g>
        </g>
    </g>
</svg>