
<svg width="62px" height="20px" viewBox="0 0 62 20" version="1.1" xmlns="http://www.w3.org/2000/svg" xmlns:xlink="http://www.w3.org/1999/xlink">
  <!-- Generator: Sketch 47.1 (45422) - http://www.bohemiancoding.com/sketch -->
  <desc>Created with Sketch.</desc>
  <defs>
    <path d="M62,0.745 L62,0.84 L60.2799,0.88 C59.6738,0.89 59.2857,0.9 59.0519,0.89 L58.9196,0.89 L55.8235,0.92 L55.8235,5.88 C55.8654,6.9 55.8648,8.23 55.8235,9.31 L55.8235,10.12 L55.8235,12.77 L55.8175,12.77 C55.8006,16.56 55.7495,19.39 55.6984,19.48 C55.2604,20.15 52.3207,20.15 51.8829,19.48 C51.8406,19.41 51.7984,17.46 51.7753,14.65 L51.7578,14.65 L51.7578,10.12 L51.7578,7.92 L51.7578,0.92 L49.131,0.92 L46.4883,0.92 L44.956,4.17 C44.6031,4.91 44.1525,5.85 43.6491,6.89 C43.2979,7.63 42.7791,8.7 42.1925,9.91 C41.8045,10.73 41.1636,12.04 40.1552,14.11 C39.1319,16.2 38.4745,17.55 38.0258,18.42 C38.0113,18.45 37.9963,18.48 37.9818,18.51 C37.8402,18.78 37.7241,19 37.6255,19.18 C37.3201,19.77 37.2025,19.93 36.9636,19.96 C36.9634,19.96 36.9627,19.96 36.9621,19.96 C36.8729,19.99 36.7827,19.98 36.6685,19.98 L36.6526,19.98 L36.121,19.98 L36.1054,19.98 L36.0684,19.91 L36.0585,19.91 L34.1663,16.05 C33.1346,13.95 32.2411,12.25 32.1246,12.21 C32.0196,12.34 31.7347,12.84 31.3466,13.58 C30.998,14.26 30.5623,15.12 30.1008,16.07 L29.573,17.14 C29.5204,17.25 29.4672,17.36 29.4128,17.47 L29.1812,17.93 C29.1038,18.12 28.9759,18.38 28.7875,18.75 C28.7445,18.83 28.705,18.91 28.6675,18.98 L28.2088,19.91 L28.1994,19.91 L28.162,19.98 L27.6147,19.98 L27.6061,19.98 L27.5989,19.98 C27.5969,19.98 27.5952,19.98 27.5931,19.98 C27.5065,19.98 27.4327,19.98 27.3675,19.97 L27.036,20 L26.9915,19.91 L26.9892,19.91 L26.48,18.87 C26.4387,18.79 26.3953,18.7 26.348,18.61 C25.9571,17.86 25.6444,17.21 25.6444,17.18 C25.6444,17.18 25.6478,17.17 25.6487,17.17 L23.1581,12.08 C21.1014,7.88 19.3623,4.41 19.2397,4.28 C19.2141,4.3 19.1501,4.4 19.0582,4.54 C18.8601,4.88 18.507,5.51 18.0554,6.35 C18.0363,6.38 18.0173,6.42 17.998,6.46 C17.5053,7.37 17.0782,8.17 16.8994,8.5 C16.7132,8.85 16.5211,9.21 16.3248,9.58 C14.7925,12.5 12.9317,16 12.1967,17.39 C10.9458,19.76 10.8363,19.91 10.3827,19.95 C10.1171,19.98 9.8356,19.91 9.7418,19.8 C9.5471,19.57 7.4644,15.53 5.2742,11.22 C5.2158,11.11 5.157,10.99 5.0976,10.88 C4.9853,10.66 4.8788,10.44 4.7776,10.24 C2.3726,5.49 0,0.72 0,0.56 C0,0.36 0.1095,0.14 0.2502,0.1 C0.4816,0.01 1.151,-0.01 1.8332,0.01 C3.0732,0.02 3.7796,0.17 3.792,0.43 C4.1643,0.89 4.8119,2.14 6.3799,5.37 C7.0653,6.78 7.6861,8.05 8.242,9.17 C8.2882,9.26 8.3346,9.35 8.3814,9.45 C8.4558,9.6 8.5275,9.75 8.5972,9.89 C10.4682,13.66 11.5097,15.62 11.6494,15.62 C11.7433,15.61 13.3382,12.71 15.199,9.16 L16.9493,5.81 C17.2172,5.29 17.4414,4.86 17.6272,4.5 C17.998,3.75 18.2919,3.11 18.4238,2.76 C18.4735,2.55 18.4457,2.44 18.3841,2.31 L18.1232,1.81 C18.0774,1.72 18.0359,1.63 17.9968,1.55 C17.8593,1.29 17.7912,1.15 17.7848,1.07 C17.6157,0.62 17.6356,0.35 17.8879,0.2 C17.8903,0.18 17.8948,0.16 17.9048,0.15 C17.9125,0.14 17.9228,0.12 17.9354,0.11 C18.0241,0.02 18.6345,-0.01 19.3077,0.01 C19.3306,0.01 19.3507,0.01 19.374,0.01 C20.1191,0.01 20.5669,-0.05 20.9735,0.15 C21.0481,0.17 21.1108,0.19 21.1565,0.2 C21.3024,0.27 21.4207,0.34 21.5479,0.49 C21.7864,0.74 22.0466,1.22 22.5484,2.26 C22.7207,2.63 22.8706,2.96 22.9889,3.24 C23.5214,4.33 24.2041,5.79 25.1284,7.72 C27.2862,12.27 28.6936,15.04 28.85,15.07 C28.8895,15.08 28.9404,15.06 29.0039,15 C29.0642,14.93 29.1357,14.84 29.2157,14.72 C29.434,14.39 29.7433,13.81 30.1791,12.91 C30.7888,11.67 31.2736,10.57 31.2736,10.44 C31.2736,10.3 30.2572,8.09 29.0063,5.54 C28.4141,4.33 27.8748,3.2 27.4708,2.32 C27.4111,2.22 27.3497,2.11 27.2862,1.99 C27.2432,1.9 27.2047,1.83 27.1667,1.75 C27.1543,1.73 27.1425,1.71 27.1299,1.68 C26.7973,1.05 26.6628,0.65 26.7772,0.39 C26.799,0.34 26.832,0.29 26.8767,0.25 C26.8921,0.23 26.9077,0.21 26.9265,0.19 C26.9969,0.12 27.2159,0.07 27.5118,0.04 C27.521,0.04 27.5307,0.04 27.5398,0.04 C27.6006,0.03 27.6643,0.03 27.7306,0.02 C27.7539,0.02 27.7766,0.02 27.8008,0.02 C28.0009,0.01 28.221,0 28.4462,0.01 C28.4507,0.01 28.4545,0.01 28.459,0.01 C29.264,0.01 29.7501,0.01 30.1282,0.18 C30.193,0.2 30.2542,0.22 30.3106,0.25 C30.6115,0.38 30.7206,0.44 30.7078,0.55 C30.7978,0.66 30.8748,0.78 30.9451,0.92 C31.0416,1.12 31.0989,1.25 31.1214,1.33 C31.3515,1.75 31.619,2.31 31.9772,3.06 C32.6654,4.52 33.3534,5.74 33.4785,5.77 C33.6349,5.8 34.0882,5.01 34.9326,3.25 C35.998,1.04 36.3447,0.32 36.6159,0.11 C36.6582,0.05 36.7604,0.01 36.9187,0.01 C37.0047,0.01 37.0791,0.03 37.1278,0.06 C37.343,0.11 37.47,0.22 37.4972,0.39 C37.5128,0.56 36.7936,2.23 35.8864,4.12 C34.9796,6 34.2448,7.6 34.2448,7.68 C34.2448,7.98 37.1775,13.95 37.8064,14.96 C37.8723,15.04 37.9217,15.08 37.9506,15.07 C37.9559,15.07 37.9655,15.06 37.9754,15.05 C38.1495,14.84 39.0338,13.18 39.979,11.32 C40.0885,11.1 40.1991,10.88 40.3118,10.65 C40.3871,10.5 40.4621,10.34 40.5363,10.19 C40.994,9.26 41.5043,8.22 42.0265,7.15 C42.0723,7.05 42.1161,6.96 42.157,6.87 C42.1899,6.8 42.2243,6.74 42.2586,6.68 C42.3343,6.52 42.4095,6.37 42.4853,6.21 L45.5501,0.01 L51.3151,0.03 C51.764,0.03 52.2446,0.03 52.7612,0.03 C52.8051,0.03 52.8511,0.03 52.8958,0.03 C55.6409,-0.01 59.7342,0.01 61.3214,0.08 L62,0.08 L62,0.175 L62,0.745 L62,0.745 Z" id="path-1"></path>
    <linearGradient x1="0%" y1="0%" x2="0%" y2="5120%" id="linearGradient-3">
      <stop stop-color="#03285D" offset="0%"></stop>
      <stop stop-color="#03285D" offset="100%"></stop>
    </linearGradient>
    <path d="M62,0.745 L62,0.84 L60.2799,0.88 C59.6738,0.89 59.2857,0.9 59.0519,0.89 L58.9196,0.89 L55.8235,0.92 L55.8235,5.88 C55.8654,6.9 55.8648,8.23 55.8235,9.31 L55.8235,10.12 L55.8235,12.77 L55.8175,12.77 C55.8006,16.56 55.7495,19.39 55.6984,19.48 C55.2604,20.15 52.3207,20.15 51.8829,19.48 C51.8406,19.41 51.7984,17.46 51.7753,14.65 L51.7578,14.65 L51.7578,10.12 L51.7578,7.92 L51.7578,0.92 L49.131,0.92 L46.4883,0.92 L44.956,4.17 C44.6031,4.91 44.1525,5.85 43.6491,6.89 C43.2979,7.63 42.7791,8.7 42.1925,9.91 C41.8045,10.73 41.1636,12.04 40.1552,14.11 C39.1319,16.2 38.4745,17.55 38.0258,18.42 C38.0113,18.45 37.9963,18.48 37.9818,18.51 C37.8402,18.78 37.7241,19 37.6255,19.18 C37.3201,19.77 37.2025,19.93 36.9636,19.96 C36.9634,19.96 36.9627,19.96 36.9621,19.96 C36.8729,19.99 36.7827,19.98 36.6685,19.98 L36.6526,19.98 L36.121,19.98 L36.1054,19.98 L36.0684,19.91 L36.0585,19.91 L34.1663,16.05 C33.1346,13.95 32.2411,12.25 32.1246,12.21 C32.0196,12.34 31.7347,12.84 31.3466,13.58 C30.998,14.26 30.5623,15.12 30.1008,16.07 L29.573,17.14 C29.5204,17.25 29.4672,17.36 29.4128,17.47 L29.1812,17.93 C29.1038,18.12 28.9759,18.38 28.7875,18.75 C28.7445,18.83 28.705,18.91 28.6675,18.98 L28.2088,19.91 L28.1994,19.91 L28.162,19.98 L27.6147,19.98 L27.6061,19.98 L27.5989,19.98 C27.5969,19.98 27.5952,19.98 27.5931,19.98 C27.5065,19.98 27.4327,19.98 27.3675,19.97 L27.036,20 L26.9915,19.91 L26.9892,19.91 L26.48,18.87 C26.4387,18.79 26.3953,18.7 26.348,18.61 C25.9571,17.86 25.6444,17.21 25.6444,17.18 C25.6444,17.18 25.6478,17.17 25.6487,17.17 L23.1581,12.08 C21.1014,7.88 19.3623,4.41 19.2397,4.28 C19.2141,4.3 19.1501,4.4 19.0582,4.54 C18.8601,4.88 18.507,5.51 18.0554,6.35 C18.0363,6.38 18.0173,6.42 17.998,6.46 C17.5053,7.37 17.0782,8.17 16.8994,8.5 C16.7132,8.85 16.5211,9.21 16.3248,9.58 C14.7925,12.5 12.9317,16 12.1967,17.39 C10.9458,19.76 10.8363,19.91 10.3827,19.95 C10.1171,19.98 9.8356,19.91 9.7418,19.8 C9.5471,19.57 7.4644,15.53 5.2742,11.22 C5.2158,11.11 5.157,10.99 5.0976,10.88 C4.9853,10.66 4.8788,10.44 4.7776,10.24 C2.3726,5.49 0,0.72 0,0.56 C0,0.36 0.1095,0.14 0.2502,0.1 C0.4816,0.01 1.151,-0.01 1.8332,0.01 C3.0732,0.02 3.7796,0.17 3.792,0.43 C4.1643,0.89 4.8119,2.14 6.3799,5.37 C7.0653,6.78 7.6861,8.05 8.242,9.17 C8.2882,9.26 8.3346,9.35 8.3814,9.45 C8.4558,9.6 8.5275,9.75 8.5972,9.89 C10.4682,13.66 11.5097,15.62 11.6494,15.62 C11.7433,15.61 13.3382,12.71 15.199,9.16 L16.9493,5.81 C17.2172,5.29 17.4414,4.86 17.6272,4.5 C17.998,3.75 18.2919,3.11 18.4238,2.76 C18.4735,2.55 18.4457,2.44 18.3841,2.31 L18.1232,1.81 C18.0774,1.72 18.0359,1.63 17.9968,1.55 C17.8593,1.29 17.7912,1.15 17.7848,1.07 C17.6157,0.62 17.6356,0.35 17.8879,0.2 C17.8903,0.18 17.8948,0.16 17.9048,0.15 C17.9125,0.14 17.9228,0.12 17.9354,0.11 C18.0241,0.02 18.6345,-0.01 19.3077,0.01 C19.3306,0.01 19.3507,0.01 19.374,0.01 C20.1191,0.01 20.5669,-0.05 20.9735,0.15 C21.0481,0.17 21.1108,0.19 21.1565,0.2 C21.3024,0.27 21.4207,0.34 21.5479,0.49 C21.7864,0.74 22.0466,1.22 22.5484,2.26 C22.7207,2.63 22.8706,2.96 22.9889,3.24 C23.5214,4.33 24.2041,5.79 25.1284,7.72 C27.2862,12.27 28.6936,15.04 28.85,15.07 C28.8895,15.08 28.9404,15.06 29.0039,15 C29.0642,14.93 29.1357,14.84 29.2157,14.72 C29.434,14.39 29.7433,13.81 30.1791,12.91 C30.7888,11.67 31.2736,10.57 31.2736,10.44 C31.2736,10.3 30.2572,8.09 29.0063,5.54 C28.4141,4.33 27.8748,3.2 27.4708,2.32 C27.4111,2.22 27.3497,2.11 27.2862,1.99 C27.2432,1.9 27.2047,1.83 27.1667,1.75 C27.1543,1.73 27.1425,1.71 27.1299,1.68 C26.7973,1.05 26.6628,0.65 26.7772,0.39 C26.799,0.34 26.832,0.29 26.8767,0.25 C26.8921,0.23 26.9077,0.21 26.9265,0.19 C26.9969,0.12 27.2159,0.07 27.5118,0.04 C27.521,0.04 27.5307,0.04 27.5398,0.04 C27.6006,0.03 27.6643,0.03 27.7306,0.02 C27.7539,0.02 27.7766,0.02 27.8008,0.02 C28.0009,0.01 28.221,0 28.4462,0.01 C28.4507,0.01 28.4545,0.01 28.459,0.01 C29.264,0.01 29.7501,0.01 30.1282,0.18 C30.193,0.2 30.2542,0.22 30.3106,0.25 C30.6115,0.38 30.7206,0.44 30.7078,0.55 C30.7978,0.66 30.8748,0.78 30.9451,0.92 C31.0416,1.12 31.0989,1.25 31.1214,1.33 C31.3515,1.75 31.619,2.31 31.9772,3.06 C32.6654,4.52 33.3534,5.74 33.4785,5.77 C33.6349,5.8 34.0882,5.01 34.9326,3.25 C35.998,1.04 36.3447,0.32 36.6159,0.11 C36.6582,0.05 36.7604,0.01 36.9187,0.01 C37.0047,0.01 37.0791,0.03 37.1278,0.06 C37.343,0.11 37.47,0.22 37.4972,0.39 C37.5128,0.56 36.7936,2.23 35.8864,4.12 C34.9796,6 34.2448,7.6 34.2448,7.68 C34.2448,7.98 37.1775,13.95 37.8064,14.96 C37.8723,15.04 37.9217,15.08 37.9506,15.07 C37.9559,15.07 37.9655,15.06 37.9754,15.05 C38.1495,14.84 39.0338,13.18 39.979,11.32 C40.0885,11.1 40.1991,10.88 40.3118,10.65 C40.3871,10.5 40.4621,10.34 40.5363,10.19 C40.994,9.26 41.5043,8.22 42.0265,7.15 C42.0723,7.05 42.1161,6.96 42.157,6.87 C42.1899,6.8 42.2243,6.74 42.2586,6.68 C42.3343,6.52 42.4095,6.37 42.4853,6.21 L45.5501,0.01 L51.3151,0.03 C51.764,0.03 52.2446,0.03 52.7612,0.03 C52.8051,0.03 52.8511,0.03 52.8958,0.03 C55.6409,-0.01 59.7342,0.01 61.3214,0.08 L62,0.08 L62,0.175 L62,0.745 L62,0.745 Z" id="path-4"></path>
    <linearGradient x1="0%" y1="100%" x2="100%" y2="100%" id="linearGradient-6">
      <stop stop-color="#03285D" offset="0%"></stop>
      <stop stop-color="#03285D" offset="100%"></stop>
    </linearGradient>
  </defs>
  <g id="Page-1" stroke="none" stroke-width="1" fill="none" fill-rule="evenodd">
    <g transform="translate(-3342.000000, -202.000000)" id="Group-4419">
      <g transform="translate(1848.000000, 0.000000)">
        <g id="Group-4342" transform="translate(1494.000000, 202.000000)">
          <g id="Group-4338">
            <mask id="mask-2" fill="white">
              <use xlink:href="#path-1"></use>
            </mask>
            <g id="Clip-4337"></g>
            <polygon id="Fill-4336" fill="url(#linearGradient-3)" mask="url(#mask-2)" points="0 20 62 20 62 0 0 0"></polygon>
          </g>
          <g id="Group-4341">
            <mask id="mask-5" fill="white">
              <use xlink:href="#path-4"></use>
            </mask>
            <g id="Clip-4340"></g>
            <polygon id="Fill-4339" fill="url(#linearGradient-6)" mask="url(#mask-5)" points="0 20 62 20 62 0 0 0"></polygon>
          </g>
        </g>
      </g>
    </g>
  </g>
</svg>
