<?xml version="1.0" encoding="UTF-8"?>
<svg width="370px" height="208px" viewBox="0 0 370 208" version="1.1" xmlns="http://www.w3.org/2000/svg" xmlns:xlink="http://www.w3.org/1999/xlink">
    <!-- Generator: Sketch 50.2 (55047) - http://www.bohemiancoding.com/sketch -->
    <title>Group 3</title>
    <desc>Created with Sketch.</desc>
    <defs>
        <polygon id="path-1" points="0 0 370 0 370 208 0 208"></polygon>
        <filter x="-3.7%" y="-1.4%" width="105.4%" height="104.2%" filterUnits="objectBoundingBox" id="filter-3">
            <feOffset dx="-2" dy="2" in="SourceAlpha" result="shadowOffsetOuter1"></feOffset>
            <feGaussianBlur stdDeviation="1.5" in="shadowOffsetOuter1" result="shadowBlurOuter1"></feGaussianBlur>
            <feColorMatrix values="0 0 0 0 0   0 0 0 0 0   0 0 0 0 0  0 0 0 0.1 0" type="matrix" in="shadowBlurOuter1" result="shadowMatrixOuter1"></feColorMatrix>
            <feMerge>
                <feMergeNode in="shadowMatrixOuter1"></feMergeNode>
                <feMergeNode in="SourceGraphic"></feMergeNode>
            </feMerge>
        </filter>
        <path d="M138.54336,1.04671804 L7.48032,34.4231144 C2.1696,35.7787841 -1.04448,41.1860795 0.30912,46.5087657 L52.28736,251.226432 C53.42208,255.697257 57.4176,258.683577 61.81632,258.720113 L61.98912,258.720113 C62.76864,258.712421 63.5616,258.612428 64.35264,258.412443 L195.41184,225.034124 C200.7264,223.678454 203.93472,218.269235 202.58688,212.950395 L150.60672,8.23080612 C149.46432,3.73305933 145.42656,0.737125382 140.99712,0.737125382 C140.1888,0.737125382 139.36512,0.837118043 138.54336,1.04671804" id="path-4"></path>
        <filter x="-0.2%" y="-0.2%" width="100.5%" height="100.4%" filterUnits="objectBoundingBox" id="filter-5">
            <feOffset dx="1" dy="0" in="SourceAlpha" result="shadowOffsetInner1"></feOffset>
            <feComposite in="shadowOffsetInner1" in2="SourceAlpha" operator="arithmetic" k2="-1" k3="1" result="shadowInnerInner1"></feComposite>
            <feColorMatrix values="0 0 0 0 0.0955755585   0 0 0 0 0.277902308   0 0 0 0 0.551392432  0 0 0 1 0" type="matrix" in="shadowInnerInner1"></feColorMatrix>
        </filter>
        <path d="M5.409664,4.69452722 L4.639744,11.7536245 L9.351424,10.5517896 L5.455744,4.6829896 L5.409664,4.69452722 Z M6.227584,17.5262777 L6.459904,18.4415951 L0.905344,19.8568758 L0.673024,18.9415584 L2.838784,18.3896758 L4.745344,1.01979694 L5.649664,0.79289052 L15.240064,15.2302924 L17.497984,14.6572575 L17.732224,15.570652 L10.716544,17.3570593 L10.484224,16.4436648 L12.857344,15.839863 L9.908224,11.3959584 L4.520704,12.7670116 L3.946624,18.1089272 L6.227584,17.5262777 Z" id="path-6"></path>
        <filter x="-11.7%" y="-5.2%" width="123.4%" height="121.0%" filterUnits="objectBoundingBox" id="filter-7">
            <feOffset dx="0" dy="1" in="SourceAlpha" result="shadowOffsetOuter1"></feOffset>
            <feGaussianBlur stdDeviation="0.5" in="shadowOffsetOuter1" result="shadowBlurOuter1"></feGaussianBlur>
            <feColorMatrix values="0 0 0 0 0.0941176471   0 0 0 0 0.278431373   0 0 0 0 0.552941176  0 0 0 1 0" type="matrix" in="shadowBlurOuter1"></feColorMatrix>
        </filter>
        <filter x="-14.7%" y="-7.9%" width="129.3%" height="126.2%" filterUnits="objectBoundingBox" id="filter-8">
            <feGaussianBlur stdDeviation="1" in="SourceAlpha" result="shadowBlurInner1"></feGaussianBlur>
            <feOffset dx="0" dy="1" in="shadowBlurInner1" result="shadowOffsetInner1"></feOffset>
            <feComposite in="shadowOffsetInner1" in2="SourceAlpha" operator="arithmetic" k2="-1" k3="1" result="shadowInnerInner1"></feComposite>
            <feColorMatrix values="0 0 0 0 0   0 0 0 0 0.141634779   0 0 0 0 0.354086947  0 0 0 1 0" type="matrix" in="shadowInnerInner1"></feColorMatrix>
        </filter>
        <path d="M11.801536,26.5173485 C11.801536,26.5173485 12.385216,22.9791467 15.628096,22.0753669 C19.097536,21.1081302 22.321216,25.3462806 20.019136,30.2728421 C18.369856,33.8110439 15.900736,36.4858476 14.643136,37.7088347 C12.951616,37.2357925 9.509056,36.0685705 6.367936,33.7514329 C1.998016,30.5209008 2.808256,25.2559026 6.319936,24.4482696 C9.601216,23.68871 11.801536,26.5173485 11.801536,26.5173485" id="path-9"></path>
        <filter x="-11.5%" y="-6.3%" width="123.0%" height="125.4%" filterUnits="objectBoundingBox" id="filter-10">
            <feOffset dx="0" dy="1" in="SourceAlpha" result="shadowOffsetOuter1"></feOffset>
            <feGaussianBlur stdDeviation="0.5" in="shadowOffsetOuter1" result="shadowBlurOuter1"></feGaussianBlur>
            <feColorMatrix values="0 0 0 0 0.0941176471   0 0 0 0 0.278431373   0 0 0 0 0.552941176  0 0 0 1 0" type="matrix" in="shadowBlurOuter1"></feColorMatrix>
        </filter>
        <filter x="-14.4%" y="-9.5%" width="128.7%" height="131.7%" filterUnits="objectBoundingBox" id="filter-11">
            <feGaussianBlur stdDeviation="1" in="SourceAlpha" result="shadowBlurInner1"></feGaussianBlur>
            <feOffset dx="0" dy="1" in="shadowBlurInner1" result="shadowOffsetInner1"></feOffset>
            <feComposite in="shadowOffsetInner1" in2="SourceAlpha" operator="arithmetic" k2="-1" k3="1" result="shadowInnerInner1"></feComposite>
            <feColorMatrix values="0 0 0 0 0   0 0 0 0 0.141634779   0 0 0 0 0.354086947  0 0 0 1 0" type="matrix" in="shadowInnerInner1"></feColorMatrix>
        </filter>
        <filter x="-4.2%" y="-1.4%" width="106.1%" height="104.5%" filterUnits="objectBoundingBox" id="filter-12">
            <feOffset dx="-2" dy="2" in="SourceAlpha" result="shadowOffsetOuter1"></feOffset>
            <feGaussianBlur stdDeviation="1.5" in="shadowOffsetOuter1" result="shadowBlurOuter1"></feGaussianBlur>
            <feColorMatrix values="0 0 0 0 0   0 0 0 0 0   0 0 0 0 0  0 0 0 0.1 0" type="matrix" in="shadowBlurOuter1" result="shadowMatrixOuter1"></feColorMatrix>
            <feMerge>
                <feMergeNode in="shadowMatrixOuter1"></feMergeNode>
                <feMergeNode in="SourceGraphic"></feMergeNode>
            </feMerge>
        </filter>
        <path d="M143.80224,0.0711486239 L9.5232,16.1295853 C4.07808,16.7795376 0.19392,21.7310972 0.8448,27.1787743 L25.8528,236.924917 C26.50368,242.37644 31.44192,246.266539 36.88704,245.616587 L171.16416,229.556228 C176.60544,228.906275 180.49152,223.960484 179.83872,218.508961 L154.83456,8.76281835 C154.23168,3.71126606 149.94624,2.28705943e-14 144.9888,2.28705943e-14 C144.59712,2.28705943e-14 144.19968,0.0230752294 143.80224,0.0711486239" id="path-13"></path>
        <filter x="-0.3%" y="-0.2%" width="100.6%" height="100.4%" filterUnits="objectBoundingBox" id="filter-14">
            <feOffset dx="1" dy="0" in="SourceAlpha" result="shadowOffsetInner1"></feOffset>
            <feComposite in="shadowOffsetInner1" in2="SourceAlpha" operator="arithmetic" k2="-1" k3="1" result="shadowInnerInner1"></feComposite>
            <feColorMatrix values="0 0 0 0 0.0955755585   0 0 0 0 0.277902308   0 0 0 0 0.551392432  0 0 0 1 0" type="matrix" in="shadowInnerInner1"></feColorMatrix>
        </filter>
        <path d="M6.690304,3.90035474 L5.010304,10.7998483 L9.839104,10.2210446 L6.738304,3.89650887 L6.690304,3.90035474 Z M5.835904,16.7301823 L5.947264,17.6685749 L0.254464,18.3492942 L0.145024,17.4109015 L2.364544,17.1474593 L6.505984,0.171782263 L7.429504,0.0621749235 L15.071104,15.6264171 L17.384704,15.3514373 L17.497984,16.2859841 L10.309504,17.1474593 L10.198144,16.2090667 L12.628864,15.9206263 L10.276864,11.1305933 L4.760704,11.7920832 L3.499264,17.0109309 L5.835904,16.7301823 Z" id="path-15"></path>
        <filter x="-11.5%" y="-5.5%" width="123.1%" height="121.9%" filterUnits="objectBoundingBox" id="filter-16">
            <feOffset dx="0" dy="1" in="SourceAlpha" result="shadowOffsetOuter1"></feOffset>
            <feGaussianBlur stdDeviation="0.5" in="shadowOffsetOuter1" result="shadowBlurOuter1"></feGaussianBlur>
            <feColorMatrix values="0 0 0 0 0.0941176471   0 0 0 0 0.278431373   0 0 0 0 0.552941176  0 0 0 1 0" type="matrix" in="shadowBlurOuter1"></feColorMatrix>
        </filter>
        <filter x="-14.4%" y="-8.2%" width="128.8%" height="127.3%" filterUnits="objectBoundingBox" id="filter-17">
            <feGaussianBlur stdDeviation="1" in="SourceAlpha" result="shadowBlurInner1"></feGaussianBlur>
            <feOffset dx="0" dy="1" in="shadowBlurInner1" result="shadowOffsetInner1"></feOffset>
            <feComposite in="shadowOffsetInner1" in2="SourceAlpha" operator="arithmetic" k2="-1" k3="1" result="shadowInnerInner1"></feComposite>
            <feColorMatrix values="0 0 0 0 0   0 0 0 0 0.141634779   0 0 0 0 0.354086947  0 0 0 1 0" type="matrix" in="shadowInnerInner1"></feColorMatrix>
        </filter>
        <path d="M14.718016,27.779179 C14.080576,27.8714799 13.494976,28.0964634 12.982336,28.4233624 C13.798336,27.508045 14.234176,26.2639056 14.076736,24.9505404 C13.790656,22.5564854 11.649856,20.8393037 9.267136,21.071979 C6.895936,21.4084927 5.219776,23.5833331 5.502016,25.9773881 C5.661376,27.2869074 6.375616,28.3945184 7.383616,29.0925441 C6.811456,28.8964046 6.187456,28.8156413 5.546176,28.8752524 C3.174976,29.2136891 1.496896,31.3885294 1.781056,33.7806615 C2.069056,36.1747166 4.209856,37.8938212 6.592576,37.6611459 C8.543296,37.3823202 10.019776,35.8651239 10.326976,33.9998762 C10.296256,35.6439863 10.165696,39.2725661 9.639616,40.8782175 L13.562176,40.4070982 C12.673216,38.9725881 11.690176,35.4766909 11.275456,33.8902689 C12.008896,35.6247569 13.806016,36.7515973 15.766336,36.5631496 C18.133696,36.2304817 19.815616,34.0517955 19.531456,31.6596634 C19.241536,29.2656083 17.102656,27.5503496 14.718016,27.779179" id="path-18"></path>
        <filter x="-11.2%" y="-5.0%" width="122.5%" height="120.2%" filterUnits="objectBoundingBox" id="filter-19">
            <feOffset dx="0" dy="1" in="SourceAlpha" result="shadowOffsetOuter1"></feOffset>
            <feGaussianBlur stdDeviation="0.5" in="shadowOffsetOuter1" result="shadowBlurOuter1"></feGaussianBlur>
            <feColorMatrix values="0 0 0 0 0.0941176471   0 0 0 0 0.278431373   0 0 0 0 0.552941176  0 0 0 1 0" type="matrix" in="shadowBlurOuter1"></feColorMatrix>
        </filter>
        <filter x="-14.0%" y="-7.6%" width="128.1%" height="125.2%" filterUnits="objectBoundingBox" id="filter-20">
            <feGaussianBlur stdDeviation="1" in="SourceAlpha" result="shadowBlurInner1"></feGaussianBlur>
            <feOffset dx="0" dy="1" in="shadowBlurInner1" result="shadowOffsetInner1"></feOffset>
            <feComposite in="shadowOffsetInner1" in2="SourceAlpha" operator="arithmetic" k2="-1" k3="1" result="shadowInnerInner1"></feComposite>
            <feColorMatrix values="0 0 0 0 0   0 0 0 0 0.141634779   0 0 0 0 0.354086947  0 0 0 1 0" type="matrix" in="shadowInnerInner1"></feColorMatrix>
        </filter>
        <filter x="-4.5%" y="-1.5%" width="106.6%" height="104.6%" filterUnits="objectBoundingBox" id="filter-21">
            <feOffset dx="-2" dy="2" in="SourceAlpha" result="shadowOffsetOuter1"></feOffset>
            <feGaussianBlur stdDeviation="1.5" in="shadowOffsetOuter1" result="shadowBlurOuter1"></feGaussianBlur>
            <feColorMatrix values="0 0 0 0 0   0 0 0 0 0   0 0 0 0 0  0 0 0 0.1 0" type="matrix" in="shadowBlurOuter1" result="shadowMatrixOuter1"></feColorMatrix>
            <feMerge>
                <feMergeNode in="shadowMatrixOuter1"></feMergeNode>
                <feMergeNode in="SourceGraphic"></feMergeNode>
            </feMerge>
        </filter>
        <path d="M10.97984,9.56532355 L0.15488,220.51907 C-0.12544,226.00136 4.08512,230.676017 9.55712,230.956766 L144.61184,237.910102 C150.08576,238.19085 154.75136,233.971929 155.03168,228.491562 L165.85856,17.5339694 C166.13888,12.0497566 161.92832,7.37702263 156.4544,7.09627401 L21.39968,0.148707034 C21.22496,0.139092355 21.05216,0.135246483 20.88128,0.135246483 C15.63584,0.135246483 11.25248,4.25417492 10.97984,9.56532355" id="path-22"></path>
        <filter x="-0.3%" y="-0.2%" width="100.6%" height="100.4%" filterUnits="objectBoundingBox" id="filter-23">
            <feOffset dx="1" dy="0" in="SourceAlpha" result="shadowOffsetInner1"></feOffset>
            <feComposite in="shadowOffsetInner1" in2="SourceAlpha" operator="arithmetic" k2="-1" k3="1" result="shadowInnerInner1"></feComposite>
            <feColorMatrix values="0 0 0 0 0.0955755585   0 0 0 0 0.277902308   0 0 0 0 0.551392432  0 0 0 1 0" type="matrix" in="shadowInnerInner1"></feColorMatrix>
        </filter>
        <path d="M8.853312,3.91022581 L6.030912,10.4232093 L10.888512,10.6731909 L8.899392,3.91407168 L8.853312,3.91022581 Z M5.842752,16.4093084 L5.792832,17.3515469 L0.069312,17.0573377 L0.117312,16.1150992 L2.350272,16.2285524 L9.302592,0.200882691 L10.231872,0.250879021 L15.129792,16.8861965 L17.454912,17.0073414 L17.408832,17.9495799 L10.178112,17.5784533 L10.228032,16.6342919 L12.672192,16.7612056 L11.166912,11.6423506 L5.618112,11.3577561 L3.492672,16.2881634 L5.842752,16.4093084 Z" id="path-24"></path>
        <filter x="-11.5%" y="-5.6%" width="123.0%" height="122.5%" filterUnits="objectBoundingBox" id="filter-25">
            <feOffset dx="0" dy="1" in="SourceAlpha" result="shadowOffsetOuter1"></feOffset>
            <feGaussianBlur stdDeviation="0.5" in="shadowOffsetOuter1" result="shadowBlurOuter1"></feGaussianBlur>
            <feColorMatrix values="0 0 0 0 0.0941176471   0 0 0 0 0.278431373   0 0 0 0 0.552941176  0 0 0 1 0" type="matrix" in="shadowBlurOuter1"></feColorMatrix>
        </filter>
        <filter x="-14.4%" y="-8.5%" width="128.8%" height="128.2%" filterUnits="objectBoundingBox" id="filter-26">
            <feGaussianBlur stdDeviation="1" in="SourceAlpha" result="shadowBlurInner1"></feGaussianBlur>
            <feOffset dx="0" dy="1" in="shadowBlurInner1" result="shadowOffsetInner1"></feOffset>
            <feComposite in="shadowOffsetInner1" in2="SourceAlpha" operator="arithmetic" k2="-1" k3="1" result="shadowInnerInner1"></feComposite>
            <feColorMatrix values="0 0 0 0 0   0 0 0 0 0.141634779   0 0 0 0 0.354086947  0 0 0 1 0" type="matrix" in="shadowInnerInner1"></feColorMatrix>
        </filter>
        <path d="M8.894592,21.6373862 C8.894592,21.6373862 12.026112,27.9273091 16.518912,33.5076687 C11.478912,38.5919109 7.719552,44.5318596 7.719552,44.5318596 C7.719552,44.5318596 4.588032,38.2380908 0.095232,32.6596541 C5.135232,27.5754119 8.894592,21.6373862 8.894592,21.6373862" id="path-27"></path>
        <filter x="-12.2%" y="-4.4%" width="124.4%" height="117.5%" filterUnits="objectBoundingBox" id="filter-28">
            <feOffset dx="0" dy="1" in="SourceAlpha" result="shadowOffsetOuter1"></feOffset>
            <feGaussianBlur stdDeviation="0.5" in="shadowOffsetOuter1" result="shadowBlurOuter1"></feGaussianBlur>
            <feColorMatrix values="0 0 0 0 0.0941176471   0 0 0 0 0.278431373   0 0 0 0 0.552941176  0 0 0 1 0" type="matrix" in="shadowBlurOuter1"></feColorMatrix>
        </filter>
        <filter x="-15.2%" y="-6.6%" width="130.4%" height="121.8%" filterUnits="objectBoundingBox" id="filter-29">
            <feGaussianBlur stdDeviation="1" in="SourceAlpha" result="shadowBlurInner1"></feGaussianBlur>
            <feOffset dx="0" dy="1" in="shadowBlurInner1" result="shadowOffsetInner1"></feOffset>
            <feComposite in="shadowOffsetInner1" in2="SourceAlpha" operator="arithmetic" k2="-1" k3="1" result="shadowInnerInner1"></feComposite>
            <feColorMatrix values="0 0 0 0 0   0 0 0 0 0.141634779   0 0 0 0 0.354086947  0 0 0 1 0" type="matrix" in="shadowInnerInner1"></feColorMatrix>
        </filter>
        <filter x="-3.9%" y="-1.4%" width="105.8%" height="104.3%" filterUnits="objectBoundingBox" id="filter-30">
            <feOffset dx="-2" dy="2" in="SourceAlpha" result="shadowOffsetOuter1"></feOffset>
            <feGaussianBlur stdDeviation="1.5" in="shadowOffsetOuter1" result="shadowBlurOuter1"></feGaussianBlur>
            <feColorMatrix values="0 0 0 0 0   0 0 0 0 0   0 0 0 0 0  0 0 0 0.1 0" type="matrix" in="shadowBlurOuter1" result="shadowMatrixOuter1"></feColorMatrix>
            <feMerge>
                <feMergeNode in="shadowMatrixOuter1"></feMergeNode>
                <feMergeNode in="SourceGraphic"></feMergeNode>
            </feMerge>
        </filter>
        <path d="M38.15488,8.53334801 L0.22912,216.331557 C-0.75392,221.727315 2.81728,226.905781 8.20864,227.89417 L141.23776,252.248152 C146.6272,253.234618 151.79776,249.654111 152.78464,244.258354 L190.70848,36.4659131 C191.69344,31.0643865 188.12224,25.8839976 182.73088,24.9013774 L49.70176,0.545472783 C49.09888,0.433942508 48.49984,0.380100306 47.90656,0.380100306 C43.20832,0.382023242 39.0304,3.73946911 38.15488,8.53334801" id="path-31"></path>
        <filter x="-0.3%" y="-0.2%" width="100.5%" height="100.4%" filterUnits="objectBoundingBox" id="filter-32">
            <feOffset dx="1" dy="0" in="SourceAlpha" result="shadowOffsetInner1"></feOffset>
            <feComposite in="shadowOffsetInner1" in2="SourceAlpha" operator="arithmetic" k2="-1" k3="1" result="shadowInnerInner1"></feComposite>
            <feColorMatrix values="0 0 0 0 0.0955755585   0 0 0 0 0.277902308   0 0 0 0 0.551392432  0 0 0 1 0" type="matrix" in="shadowInnerInner1"></feColorMatrix>
        </filter>
        <path d="M113.698432,101.226288 C102.698752,88.5656788 96.890752,82.2180678 92.108032,66.2788531 C82.003072,79.4913448 74.330752,83.3718292 59.565952,91.3116311 C36.497152,103.724182 43.827712,126.778259 59.373952,130.672204 C69.068032,133.097026 76.289152,127.170537 79.829632,123.270824 C77.884672,129.051169 74.180992,139.335029 71.105152,143.678941 L84.410752,146.115301 C83.068672,140.961833 83.235712,130.029943 83.458432,123.934237 C85.393792,128.837723 90.057472,136.939051 99.976192,138.10435 C115.894912,139.973444 130.893952,121.007528 113.698432,101.226288" id="path-33"></path>
        <filter x="-2.6%" y="-1.3%" width="105.2%" height="105.0%" filterUnits="objectBoundingBox" id="filter-34">
            <feOffset dx="0" dy="1" in="SourceAlpha" result="shadowOffsetOuter1"></feOffset>
            <feGaussianBlur stdDeviation="0.5" in="shadowOffsetOuter1" result="shadowBlurOuter1"></feGaussianBlur>
            <feColorMatrix values="0 0 0 0 0.0941176471   0 0 0 0 0.278431373   0 0 0 0 0.552941176  0 0 0 1 0" type="matrix" in="shadowBlurOuter1"></feColorMatrix>
        </filter>
        <filter x="-3.3%" y="-1.9%" width="106.5%" height="106.3%" filterUnits="objectBoundingBox" id="filter-35">
            <feGaussianBlur stdDeviation="1" in="SourceAlpha" result="shadowBlurInner1"></feGaussianBlur>
            <feOffset dx="0" dy="1" in="shadowBlurInner1" result="shadowOffsetInner1"></feOffset>
            <feComposite in="shadowOffsetInner1" in2="SourceAlpha" operator="arithmetic" k2="-1" k3="1" result="shadowInnerInner1"></feComposite>
            <feColorMatrix values="0 0 0 0 0   0 0 0 0 0.141634779   0 0 0 0 0.354086947  0 0 0 1 0" type="matrix" in="shadowInnerInner1"></feColorMatrix>
        </filter>
        <linearGradient x1="0%" y1="100%" x2="100%" y2="100%" id="linearGradient-36">
            <stop stop-color="#CC9C58" offset="0%"></stop>
            <stop stop-color="#FFEEB8" offset="38.2135116%"></stop>
            <stop stop-color="#BB943B" offset="52.3911669%"></stop>
            <stop stop-color="#FFFBB9" offset="100%"></stop>
        </linearGradient>
        <path d="M43.084096,3.92285309 L39.447616,10.0166366 L44.230336,10.8934953 L43.130176,3.93054483 L43.084096,3.92285309 Z M38.487616,15.9277412 L38.318656,16.8584421 L32.681536,15.8239026 L32.848576,14.8932017 L35.046976,15.2989412 L44.009536,0.303887951 L44.923456,0.471183364 L47.636416,17.6006953 L49.926976,18.0218182 L49.759936,18.9486733 L42.638656,17.6468457 L42.805696,16.7180678 L45.213376,17.1584201 L44.382016,11.889576 L38.917696,10.8896494 L36.172096,15.5046953 L38.487616,15.9277412 Z" id="path-37"></path>
        <filter x="-11.6%" y="-5.4%" width="123.2%" height="121.5%" filterUnits="objectBoundingBox" id="filter-38">
            <feOffset dx="0" dy="1" in="SourceAlpha" result="shadowOffsetOuter1"></feOffset>
            <feGaussianBlur stdDeviation="0.5" in="shadowOffsetOuter1" result="shadowBlurOuter1"></feGaussianBlur>
            <feColorMatrix values="0 0 0 0 0.0941176471   0 0 0 0 0.278431373   0 0 0 0 0.552941176  0 0 0 1 0" type="matrix" in="shadowBlurOuter1"></feColorMatrix>
        </filter>
        <filter x="-14.5%" y="-8.0%" width="129.0%" height="126.8%" filterUnits="objectBoundingBox" id="filter-39">
            <feGaussianBlur stdDeviation="1" in="SourceAlpha" result="shadowBlurInner1"></feGaussianBlur>
            <feOffset dx="0" dy="1" in="shadowBlurInner1" result="shadowOffsetInner1"></feOffset>
            <feComposite in="shadowOffsetInner1" in2="SourceAlpha" operator="arithmetic" k2="-1" k3="1" result="shadowInnerInner1"></feComposite>
            <feColorMatrix values="0 0 0 0 0   0 0 0 0 0.141634779   0 0 0 0 0.354086947  0 0 0 1 0" type="matrix" in="shadowInnerInner1"></feColorMatrix>
        </filter>
        <path d="M45.74272,29.4542483 C43.18336,26.5083107 41.83168,25.0295731 40.71808,21.3221529 C38.368,24.3950043 36.5824,25.300707 33.14944,27.1486483 C27.78304,30.0368979 29.488,35.3961199 33.10336,36.3056685 C35.35936,36.8671657 37.03744,35.4903437 37.86496,34.5807951 C37.40992,35.9249272 36.54976,38.3189823 35.8336,39.3285235 L38.92864,39.8957896 C38.61568,38.6978006 38.65408,36.1537566 38.70784,34.7365529 C39.15904,35.8768538 40.24384,37.7613309 42.54976,38.0343878 C46.25344,38.4651254 49.74016,34.0558336 45.74272,29.4542483" id="path-40"></path>
        <filter x="-11.2%" y="-5.4%" width="122.5%" height="121.5%" filterUnits="objectBoundingBox" id="filter-41">
            <feOffset dx="0" dy="1" in="SourceAlpha" result="shadowOffsetOuter1"></feOffset>
            <feGaussianBlur stdDeviation="0.5" in="shadowOffsetOuter1" result="shadowBlurOuter1"></feGaussianBlur>
            <feColorMatrix values="0 0 0 0 0.0941176471   0 0 0 0 0.278431373   0 0 0 0 0.552941176  0 0 0 1 0" type="matrix" in="shadowBlurOuter1"></feColorMatrix>
        </filter>
        <filter x="-14.1%" y="-8.1%" width="128.1%" height="126.9%" filterUnits="objectBoundingBox" id="filter-42">
            <feGaussianBlur stdDeviation="1" in="SourceAlpha" result="shadowBlurInner1"></feGaussianBlur>
            <feOffset dx="0" dy="1" in="shadowBlurInner1" result="shadowOffsetInner1"></feOffset>
            <feComposite in="shadowOffsetInner1" in2="SourceAlpha" operator="arithmetic" k2="-1" k3="1" result="shadowInnerInner1"></feComposite>
            <feColorMatrix values="0 0 0 0 0   0 0 0 0 0.141634779   0 0 0 0 0.354086947  0 0 0 1 0" type="matrix" in="shadowInnerInner1"></feColorMatrix>
        </filter>
    </defs>
    <g id="Main" stroke="none" stroke-width="1" fill="none" fill-rule="evenodd">
        <g id="1.01-Landing" transform="translate(-956.000000, -9726.000000)">
            <g id="Software-Suite" transform="translate(4.000000, 9422.000000)">
                <g id="Group" transform="translate(952.000000, 304.000000)">
                    <g id="Group-3">
                        <mask id="mask-2" fill="white">
                            <use xlink:href="#path-1"></use>
                        </mask>
                        <use id="Rectangle-13" fill="#00265F" xlink:href="#path-1"></use>
                        <g id="Group-5" mask="url(#mask-2)">
                            <g transform="translate(50.000000, 40.000000)">
                                <g id="Group-3" filter="url(#filter-3)" transform="translate(0.000000, 3.204893)">
                                    <g id="Fill-1">
                                        <use fill="#133D7D" fill-rule="evenodd" xlink:href="#path-4"></use>
                                        <use fill="black" fill-opacity="1" filter="url(#filter-5)" xlink:href="#path-4"></use>
                                    </g>
                                    <g id="Group-14" transform="translate(14.240000, 42.229593)">
                                        <g id="Fill-4">
                                            <use fill="black" fill-opacity="1" filter="url(#filter-7)" xlink:href="#path-6"></use>
                                            <use fill="#002A69" fill-rule="evenodd" xlink:href="#path-6"></use>
                                            <use fill="black" fill-opacity="1" filter="url(#filter-8)" xlink:href="#path-6"></use>
                                        </g>
                                        <g id="Fill-6">
                                            <use fill="black" fill-opacity="1" filter="url(#filter-10)" xlink:href="#path-9"></use>
                                            <use fill="#002A69" fill-rule="evenodd" xlink:href="#path-9"></use>
                                            <use fill="black" fill-opacity="1" filter="url(#filter-11)" xlink:href="#path-9"></use>
                                        </g>
                                        <path d="M82.435648,67.7514373 C82.435648,67.7514373 85.089088,51.6737713 99.817408,47.5721492 C115.580608,43.1801639 130.220608,62.4210593 119.773888,84.798263 C112.272448,100.875929 101.063488,113.011577 95.343808,118.582322 C87.659968,116.426711 72.025408,111.125177 57.767488,100.591335 C37.916608,85.9289492 41.599168,62.0210887 57.540928,58.3386667 C72.440128,54.8946887 82.435648,67.7514373 82.435648,67.7514373" id="Fill-8" fill="#ED1C24"></path>
                                    </g>
                                </g>
                                <g id="Group-4" filter="url(#filter-12)" transform="translate(33.600000, 0.000000)">
                                    <g id="Fill-15">
                                        <use fill="#133D7D" fill-rule="evenodd" xlink:href="#path-13"></use>
                                        <use fill="black" fill-opacity="1" filter="url(#filter-14)" xlink:href="#path-13"></use>
                                    </g>
                                    <g id="Group-28" transform="translate(13.280000, 26.205128)">
                                        <path d="M94.324096,78.6056406 C91.678336,78.984459 89.249536,79.9266975 87.124096,81.2765984 C90.507136,77.486492 92.317696,72.3214865 91.668736,66.8776553 C90.484096,56.9495379 81.596416,49.8289067 71.716096,50.7865287 C61.881856,52.184503 54.918016,61.2049947 56.102656,71.1331122 C56.753536,76.5769434 59.725696,81.1669911 63.903616,84.0552406 C61.522816,83.2437617 58.938496,82.9014791 56.279296,83.1572296 C46.446976,84.5571269 39.486976,93.5756957 40.669696,103.503813 C41.856256,113.431931 50.738176,120.552562 60.622336,119.59494 C68.709376,118.443101 74.839936,112.135872 76.112896,104.415285 C75.980416,111.228246 75.442816,126.273296 73.257856,132.932422 L89.526016,130.986411 C85.835776,125.034925 81.776896,110.535989 80.048896,103.942242 C83.097856,111.151329 90.539776,115.831754 98.669056,115.045274 C108.501376,113.647299 115.461376,104.628731 114.276736,94.702536 C113.092096,84.7724957 104.208256,77.6518645 94.324096,78.6056406" id="Fill-22" fill="#000000"></path>
                                        <g id="Fill-24">
                                            <use fill="black" fill-opacity="1" filter="url(#filter-16)" xlink:href="#path-15"></use>
                                            <use fill="#002A69" fill-rule="evenodd" xlink:href="#path-15"></use>
                                            <use fill="black" fill-opacity="1" filter="url(#filter-17)" xlink:href="#path-15"></use>
                                        </g>
                                        <g id="Fill-26">
                                            <use fill="black" fill-opacity="1" filter="url(#filter-19)" xlink:href="#path-18"></use>
                                            <use fill="#002A69" fill-rule="evenodd" xlink:href="#path-18"></use>
                                            <use fill="black" fill-opacity="1" filter="url(#filter-20)" xlink:href="#path-18"></use>
                                        </g>
                                    </g>
                                </g>
                                <g id="Group-2" filter="url(#filter-21)" transform="translate(64.000000, 5.608563)">
                                    <g id="Fill-29">
                                        <use fill="#133D7D" fill-rule="evenodd" xlink:href="#path-22"></use>
                                        <use fill="black" fill-opacity="1" filter="url(#filter-23)" xlink:href="#path-22"></use>
                                    </g>
                                    <g id="Group-42" transform="translate(20.480000, 11.783109)">
                                        <path d="M65.596608,60.1260996 C65.596608,60.1260996 78.084288,85.2281032 96.005568,107.470701 C75.901248,127.759597 60.909888,151.44632 60.909888,151.44632 C60.909888,151.44632 48.422208,126.344316 30.500928,104.097872 C50.603328,83.8128225 65.596608,60.1260996 65.596608,60.1260996" id="Fill-36" fill="#ED1C24"></path>
                                        <g id="Fill-38">
                                            <use fill="black" fill-opacity="1" filter="url(#filter-25)" xlink:href="#path-24"></use>
                                            <use fill="#002A69" fill-rule="evenodd" xlink:href="#path-24"></use>
                                            <use fill="black" fill-opacity="1" filter="url(#filter-26)" xlink:href="#path-24"></use>
                                        </g>
                                        <g id="Fill-40">
                                            <use fill="black" fill-opacity="1" filter="url(#filter-28)" xlink:href="#path-27"></use>
                                            <use fill="#002A69" fill-rule="evenodd" xlink:href="#path-27"></use>
                                            <use fill="black" fill-opacity="1" filter="url(#filter-29)" xlink:href="#path-27"></use>
                                        </g>
                                    </g>
                                </g>
                                <g id="Group" filter="url(#filter-30)" transform="translate(72.800000, 1.602446)">
                                    <g id="Fill-43">
                                        <use fill="#133D7D" fill-rule="evenodd" xlink:href="#path-31"></use>
                                        <use fill="black" fill-opacity="1" filter="url(#filter-32)" xlink:href="#path-31"></use>
                                    </g>
                                    <g id="Group-56" transform="translate(12.480000, 13.065067)">
                                        <g id="Fill-50">
                                            <use fill="black" fill-opacity="1" filter="url(#filter-34)" xlink:href="#path-33"></use>
                                            <use fill="#002A69" fill-rule="evenodd" xlink:href="#path-33"></use>
                                            <use fill="black" fill-opacity="1" filter="url(#filter-35)" xlink:href="#path-33"></use>
                                        </g>
                                        <path d="M164.221534,20.1940093 C163.513673,20.1625372 161.688228,20.1547618 160.464016,20.173645 C160.444082,20.1735525 160.423577,20.1734599 160.404026,20.1733673 C160.173604,20.1725342 159.9593,20.1717937 159.759111,20.1713309 L157.188132,20.1618893 L155.821337,22.9165251 C155.787575,22.9852081 155.754003,23.0538912 155.720241,23.1224817 C155.704982,23.1491404 155.689626,23.1774652 155.674939,23.2075488 C155.656723,23.2471665 155.637171,23.2896538 155.616761,23.3334369 C155.38386,23.8077389 155.156299,24.2696373 154.9522,24.6834019 C154.919105,24.7500485 154.885629,24.8176208 154.852058,24.8859337 C154.801796,24.9871996 154.752488,25.0859662 154.703657,25.1831592 C154.282107,26.0076339 153.887738,26.7469489 153.810104,26.8388657 C153.805717,26.8435865 153.801425,26.8480296 153.799041,26.8487702 C153.786165,26.8518248 153.764134,26.8333118 153.734759,26.7967487 C153.454266,26.349198 152.146412,23.7024927 152.146412,23.5662374 C152.146412,23.5323587 152.474115,22.8217387 152.878497,21.9893035 C153.283071,21.1500185 153.603812,20.4055198 153.596849,20.3310977 C153.584737,20.2548244 153.528085,20.2058576 153.43214,20.1848454 C153.410395,20.1704053 153.377205,20.1618893 153.338865,20.1618893 C153.268288,20.1618893 153.2227,20.179384 153.203816,20.2071535 C153.082883,20.3027729 152.928282,20.6218438 152.453132,21.6034934 C152.076598,22.3817782 151.874407,22.7337096 151.804689,22.7201951 C151.748896,22.7066807 151.44208,22.1651766 151.135168,21.5154643 C150.975418,21.1859336 150.856106,20.9375823 150.753484,20.7493981 C150.74347,20.7137606 150.71791,20.6568333 150.674897,20.5679711 C150.643519,20.5042865 150.609184,20.4503212 150.569032,20.4041314 C150.574755,20.355072 150.526114,20.325729 150.391924,20.2704678 C150.366745,20.2585269 150.339469,20.2479746 150.31057,20.2382553 C150.14195,20.1633703 149.925167,20.1644811 149.566182,20.1618893 C149.564179,20.1618893 149.562462,20.1618893 149.560459,20.1618893 C149.460031,20.1608711 149.361892,20.1627224 149.272622,20.1676283 C149.261845,20.1681837 149.251736,20.1689242 149.24134,20.1695722 C149.211774,20.1714235 149.183353,20.1737376 149.156267,20.1763294 C149.152166,20.1766997 149.147874,20.1770699 149.143773,20.1775327 C149.011776,20.1909546 148.914114,20.2127074 148.882736,20.2430686 C148.874343,20.2513069 148.867381,20.2605634 148.860514,20.270005 C148.840581,20.2885179 148.825894,20.3097153 148.816166,20.3343375 C148.765141,20.4461558 148.825131,20.6246207 148.973436,20.906388 C148.979063,20.9170329 148.984309,20.9259191 148.989841,20.9360087 C149.006817,20.9701651 149.023984,21.0045066 149.043154,21.0417177 C149.07148,21.0954978 149.098852,21.1441869 149.125461,21.1900065 C149.305622,21.5773902 149.546153,22.0804798 149.810242,22.6186515 C150.368081,23.7489603 150.82139,24.7303322 150.82139,24.7912399 C150.82139,24.8521475 150.605179,25.3394086 150.333269,25.8876699 C150.138898,26.2875498 150.000989,26.5462684 149.903612,26.6936316 C149.867943,26.7453753 149.836088,26.7861964 149.809193,26.8147989 C149.780867,26.8421981 149.758168,26.8533984 149.740524,26.8487702 C149.670806,26.8352557 149.043154,25.6034034 148.080837,23.5865091 C147.668634,22.7265821 147.364202,22.0819609 147.126723,21.5986801 C147.073981,21.473625 147.007124,21.3247808 146.930253,21.163533 C146.706508,20.7026528 146.590438,20.4891059 146.484097,20.3752512 C146.42735,20.3107335 146.374608,20.2769473 146.309564,20.2499184 C146.289154,20.2420504 146.26121,20.2345527 146.227924,20.2275177 C146.04662,20.1356935 145.846908,20.1641109 145.514627,20.1618893 C145.504231,20.1618893 145.495266,20.162167 145.485061,20.162167 C145.184826,20.1548544 144.912631,20.1676283 144.873051,20.2092825 C144.867424,20.2143735 144.862846,20.2196497 144.859412,20.2251111 C144.85493,20.2323311 144.852927,20.2399214 144.851878,20.2476043 C144.739337,20.3153617 144.730468,20.432919 144.805908,20.6339698 C144.808769,20.6680336 144.839098,20.7318107 144.900423,20.8480721 C144.917876,20.8838947 144.936379,20.9210132 144.956788,20.9605384 L145.073144,21.1863039 C145.100611,21.2430461 145.11301,21.2924757 145.090883,21.3835595 C145.032038,21.5380501 144.900995,21.8248159 144.735618,22.1569383 C144.652738,22.317168 144.552787,22.5078515 144.433284,22.7356535 L143.652749,24.2227069 C142.822905,25.7997333 142.111611,27.0856435 142.069742,27.0924007 C142.007463,27.0924007 141.542995,26.2216437 140.708574,24.5484424 C140.677482,24.4842024 140.645532,24.4186666 140.612342,24.351372 C140.591456,24.3103658 140.57076,24.2700075 140.550159,24.2301121 C140.302284,23.730725 140.025415,23.1689493 139.719743,22.5442295 C139.020466,21.1102156 138.731676,20.5527904 138.565631,20.3489627 C138.560099,20.2349229 138.245081,20.1663324 137.692106,20.1623521 C137.387865,20.1530031 137.089347,20.1637406 136.986153,20.2025252 C136.923397,20.2227969 136.874566,20.3174907 136.874566,20.4055198 C136.874566,20.4772576 137.932638,22.5941219 139.005206,24.7027479 C139.050318,24.7942945 139.097814,24.889266 139.147885,24.9875698 C139.174399,25.0383879 139.200626,25.0882803 139.226663,25.1375248 C140.203382,27.0530607 141.132222,28.8439118 141.219012,28.9468438 C141.260881,28.994237 141.386392,29.0280232 141.504846,29.0145087 C141.707133,28.994237 141.755964,28.9264796 142.313803,27.8774427 C142.641601,27.2616092 143.471444,25.704947 144.154794,24.412187 C144.242347,24.2475143 144.327992,24.0867292 144.411062,23.9314981 C144.490794,23.7833018 144.681255,23.4304448 144.900995,23.0248259 C144.909579,23.0082568 144.918067,22.9922431 144.926555,22.9759517 C145.127984,22.6066181 145.285445,22.3242029 145.373761,22.1751736 C145.414771,22.1098229 145.443288,22.0686315 145.454733,22.0596527 C145.509382,22.115747 146.284957,23.6554698 147.202163,25.5222241 L148.312881,27.7793241 C148.312499,27.7804348 148.310973,27.7815456 148.310973,27.782749 C148.310973,27.7962634 148.450409,28.0872871 148.624751,28.4188542 C148.645829,28.4597679 148.66519,28.4973492 148.683597,28.5328015 L148.910681,28.994237 L148.91173,28.994237 L148.931567,29.0347804 L149.079396,29.0234875 C149.108485,29.0270975 149.141389,29.0279306 149.180015,29.0280232 C149.180969,29.0280232 149.181732,29.0280232 149.18259,29.0280232 L149.185833,29.0280232 L149.189648,29.0280232 L149.433708,29.0280232 L149.450398,28.9945147 L149.454595,28.994237 L149.659171,28.5807501 C149.675861,28.549278 149.693505,28.5159547 149.712675,28.4798544 C149.796699,28.314256 149.853732,28.1986426 149.888257,28.1180186 L149.991547,27.9113215 C150.015772,27.8615216 150.039519,27.81274 150.062981,27.7644211 L150.298363,27.2886381 C150.504178,26.8710783 150.698454,26.4865641 150.853912,26.187765 C151.027015,25.8592525 151.154052,25.63432 151.200881,25.5782258 C151.252859,25.5946097 151.651329,26.3488277 152.11141,27.2818808 L152.955273,28.994237 L152.95966,28.9945147 L152.97616,29.0280232 L152.983122,29.0280232 L153.22022,29.0280232 L153.227278,29.0280232 C153.278207,29.0280232 153.318455,29.0303373 153.358225,29.0181187 C153.358511,29.0180262 153.358798,29.0180262 153.358893,29.0179336 C153.465425,29.0053448 153.51788,28.9325889 153.654073,28.6723892 C153.698041,28.5917653 153.749828,28.4929061 153.812965,28.3715536 C153.819451,28.3588722 153.826127,28.3456355 153.832612,28.3328615 C154.032706,27.9478846 154.325883,27.3504714 154.782245,26.4223241 C155.23193,25.5036185 155.517764,24.9200901 155.690771,24.5567732 C155.95238,24.0207305 156.183756,23.5442069 156.340359,23.2174532 C156.564868,22.7544441 156.765819,22.3380877 156.923185,22.0095752 L157.606535,20.5679711 L158.785063,20.5679711 L159.956534,20.5679711 L159.956534,23.6745382 L159.956534,24.6490604 L159.956534,26.6591975 L159.964355,26.6591975 C159.974655,27.9078966 159.993443,28.7726369 160.012327,28.8046643 C160.207557,29.1025378 161.518558,29.1025378 161.713883,28.8046643 C161.736677,28.7659722 161.759472,27.5094051 161.767006,25.8276879 L161.769676,25.8267623 L161.769676,24.6490604 L161.769676,24.2901866 C161.788084,23.8125523 161.78837,23.2216186 161.769676,22.767218 L161.769676,20.5679711 L163.150396,20.5544566 L163.209432,20.5535309 C163.313675,20.5582518 163.486778,20.5555674 163.757066,20.5476994 L164.524154,20.5340923 L164.524154,20.3649765 L164.524154,20.195768 L164.221534,20.1940093 Z" id="Fill-1" fill="url(#linearGradient-36)" transform="translate(150.699360, 24.596981) rotate(10.600000) translate(-150.699360, -24.596981) "></path>
                                        <g id="Fill-52">
                                            <use fill="black" fill-opacity="1" filter="url(#filter-38)" xlink:href="#path-37"></use>
                                            <use fill="#002A69" fill-rule="evenodd" xlink:href="#path-37"></use>
                                            <use fill="black" fill-opacity="1" filter="url(#filter-39)" xlink:href="#path-37"></use>
                                        </g>
                                        <g id="Fill-54">
                                            <use fill="black" fill-opacity="1" filter="url(#filter-41)" xlink:href="#path-40"></use>
                                            <use fill="#002A69" fill-rule="evenodd" xlink:href="#path-40"></use>
                                            <use fill="black" fill-opacity="1" filter="url(#filter-42)" xlink:href="#path-40"></use>
                                        </g>
                                    </g>
                                </g>
                            </g>
                        </g>
                    </g>
                </g>
            </g>
        </g>
    </g>
</svg>