<?xml version="1.0" encoding="UTF-8"?>
<svg width="370px" height="208px" viewBox="0 0 370 208" version="1.1" xmlns="http://www.w3.org/2000/svg" xmlns:xlink="http://www.w3.org/1999/xlink">
    <!-- Generator: Sketch 50.2 (55047) - http://www.bohemiancoding.com/sketch -->
    <title>Group 3</title>
    <desc>Created with Sketch.</desc>
    <defs>
        <polygon id="path-1" points="0 0 370 0 370 208 0 208"></polygon>
        <ellipse id="path-3" cx="105.01181" cy="105.211554" rx="105.01181" ry="105.211554"></ellipse>
        <filter x="-1.0%" y="-1.0%" width="101.9%" height="101.9%" filterUnits="objectBoundingBox" id="filter-4">
            <feGaussianBlur stdDeviation="1" in="SourceAlpha" result="shadowBlurInner1"></feGaussianBlur>
            <feOffset dx="1" dy="2" in="shadowBlurInner1" result="shadowOffsetInner1"></feOffset>
            <feComposite in="shadowOffsetInner1" in2="SourceAlpha" operator="arithmetic" k2="-1" k3="1" result="shadowInnerInner1"></feComposite>
            <feColorMatrix values="0 0 0 0 0.0955755585   0 0 0 0 0.277902308   0 0 0 0 0.551392432  0 0 0 1 0" type="matrix" in="shadowInnerInner1"></feColorMatrix>
        </filter>
        <ellipse id="path-5" cx="105.01181" cy="105.211554" rx="63.0070857" ry="63.1269323"></ellipse>
        <filter x="-3.2%" y="-1.6%" width="106.3%" height="106.3%" filterUnits="objectBoundingBox" id="filter-6">
            <feOffset dx="0" dy="2" in="SourceAlpha" result="shadowOffsetOuter1"></feOffset>
            <feGaussianBlur stdDeviation="1" in="shadowOffsetOuter1" result="shadowBlurOuter1"></feGaussianBlur>
            <feColorMatrix values="0 0 0 0 0.0941176471   0 0 0 0 0.278431373   0 0 0 0 0.552941176  0 0 0 1 0" type="matrix" in="shadowBlurOuter1"></feColorMatrix>
        </filter>
        <filter x="-3.2%" y="-1.6%" width="106.3%" height="106.3%" filterUnits="objectBoundingBox" id="filter-7">
            <feGaussianBlur stdDeviation="1" in="SourceAlpha" result="shadowBlurInner1"></feGaussianBlur>
            <feOffset dx="0" dy="2" in="shadowBlurInner1" result="shadowOffsetInner1"></feOffset>
            <feComposite in="shadowOffsetInner1" in2="SourceAlpha" operator="arithmetic" k2="-1" k3="1" result="shadowInnerInner1"></feComposite>
            <feColorMatrix values="0 0 0 0 0   0 0 0 0 0.141634779   0 0 0 0 0.354086947  0 0 0 1 0" type="matrix" in="shadowInnerInner1"></feColorMatrix>
        </filter>
        <linearGradient x1="0%" y1="100%" x2="100%" y2="100%" id="linearGradient-8">
            <stop stop-color="#CC9C58" offset="0%"></stop>
            <stop stop-color="#FFEEB8" offset="38.2135116%"></stop>
            <stop stop-color="#BB943B" offset="52.3911669%"></stop>
            <stop stop-color="#FFFBB9" offset="100%"></stop>
        </linearGradient>
    </defs>
    <g id="Main" stroke="none" stroke-width="1" fill="none" fill-rule="evenodd">
        <g id="1.01-Landing" transform="translate(-116.000000, -9726.000000)">
            <g id="Software-Suite" transform="translate(4.000000, 9422.000000)">
                <g id="Group" transform="translate(112.000000, 304.000000)">
                    <g id="Group-3">
                        <g id="Group-4">
                            <mask id="mask-2" fill="white">
                                <use xlink:href="#path-1"></use>
                            </mask>
                            <use id="Rectangle-13" fill="#00265F" xlink:href="#path-1"></use>
                            <g id="Roulette-/-Chips-/-Red" mask="url(#mask-2)">
                                <g transform="translate(79.000000, 52.000000)" id="Chip">
                                    <g>
                                        <path d="M105.690457,214.648585 C47.6151296,214.648585 0.535774538,167.518375 0.535774538,109.380314 C0.535774538,51.2422524 47.6151296,4.11204186 105.690457,4.11204186 C163.765785,4.11204186 210.84514,51.2422524 210.84514,109.380314 C210.84514,167.518375 163.765785,214.648585 105.690457,214.648585 Z" id="Body" fill="#00245A"></path>
                                        <g id="Top" transform="translate(0.821521, 0.000000)">
                                            <g>
                                                <use fill="#0C3675" fill-rule="evenodd" xlink:href="#path-3"></use>
                                                <use fill="black" fill-opacity="1" filter="url(#filter-4)" xlink:href="#path-3"></use>
                                            </g>
                                            <g id="Middle">
                                                <use fill="black" fill-opacity="1" filter="url(#filter-6)" xlink:href="#path-5"></use>
                                                <use fill="#002A69" fill-rule="evenodd" xlink:href="#path-5"></use>
                                                <use fill="black" fill-opacity="1" filter="url(#filter-7)" xlink:href="#path-5"></use>
                                            </g>
                                            <path d="M137.361261,94.3071348 C135.648483,94.2312015 131.231536,94.2124416 128.269366,94.2580015 C128.221135,94.2577782 128.171519,94.2575548 128.124211,94.2573315 C127.56667,94.2553215 127.048128,94.2535348 126.563741,94.2524182 L120.342861,94.2296382 L117.03569,100.875806 C116.953997,101.041519 116.872766,101.207232 116.791073,101.372722 C116.75415,101.437042 116.716996,101.505382 116.681457,101.577965 C116.63738,101.673552 116.590072,101.776062 116.540687,101.881698 C115.977145,103.026057 115.426527,104.140489 114.932678,105.138787 C114.852601,105.299587 114.7716,105.46262 114.690369,105.62744 C114.568753,105.871766 114.449445,106.110063 114.33129,106.344562 C113.311285,108.33379 112.357049,110.117551 112.169202,110.33932 C112.158586,110.35071 112.148202,110.36143 112.142432,110.363217 C112.111278,110.370587 112.05797,110.32592 111.986893,110.237704 C111.308197,109.157889 108.143642,102.772127 108.143642,102.443381 C108.143642,102.361641 108.936569,100.647113 109.915036,98.6386791 C110.893964,96.6137184 111.670045,94.8174508 111.653199,94.637891 C111.623891,94.4538646 111.486813,94.3357214 111.254658,94.2850248 C111.202043,94.2501849 111.121735,94.2296382 111.028965,94.2296382 C110.858195,94.2296382 110.747886,94.2718482 110.702194,94.3388481 C110.409577,94.5695511 110.035498,95.3393801 108.885799,97.707827 C107.974718,99.5856112 107.485484,100.434723 107.316791,100.402117 C107.18179,100.36951 106.439402,99.0630119 105.696782,97.4954373 C105.310242,96.7003716 105.021548,96.1011691 104.773239,95.647133 C104.749008,95.5611498 104.687161,95.4238 104.583084,95.2094003 C104.50716,95.0557471 104.424083,94.925544 104.326929,94.8141008 C104.340775,94.6957343 104.223082,94.6249377 103.898388,94.4916079 C103.837464,94.4627979 103.771464,94.4373379 103.701541,94.413888 C103.293538,94.2332115 102.768997,94.2358915 101.900377,94.2296382 C101.895531,94.2296382 101.891377,94.2296382 101.886531,94.2296382 C101.643529,94.2271816 101.406067,94.2316482 101.190065,94.2434849 C101.163988,94.2448249 101.139527,94.2466115 101.114373,94.2481749 C101.042834,94.2526415 100.974064,94.2582248 100.908525,94.2644782 C100.898602,94.2653715 100.888218,94.2662648 100.878295,94.2673815 C100.558908,94.2997648 100.322599,94.3522481 100.246676,94.4255013 C100.226368,94.4453779 100.209522,94.4677112 100.192906,94.4904912 C100.144675,94.5351578 100.109137,94.5863011 100.085598,94.6457077 C99.9621357,94.915494 100.10729,95.3460801 100.466138,96.0259059 C100.479754,96.0515892 100.492446,96.0730291 100.505831,96.0973724 C100.546908,96.1797823 100.588447,96.2626389 100.634832,96.3524188 C100.70337,96.4821753 100.769602,96.5996484 100.833987,96.7101983 C101.269912,97.6448471 101.851915,98.8586622 102.490919,100.15712 C103.840695,102.88424 104.937547,105.252017 104.937547,105.39897 C104.937547,105.545923 104.414391,106.721549 103.756464,108.04435 C103.286154,109.009149 102.95246,109.633365 102.716843,109.988911 C102.630535,110.113754 102.553457,110.212244 102.48838,110.281254 C102.419841,110.34736 102.364918,110.374384 102.322225,110.363217 C102.153532,110.33061 100.634832,107.358494 98.3063575,102.492291 C97.3089675,100.417527 96.5723481,98.8622355 95.9977296,97.6962137 C95.8701136,97.3944907 95.7083435,97.0353712 95.5223424,96.6463251 C94.9809549,95.5343498 94.7001072,95.0191205 94.4427981,94.7444209 C94.3054897,94.5887577 94.1778736,94.5072412 94.0204882,94.4420279 C93.9711033,94.4230446 93.9034875,94.4049547 93.8229486,94.3879813 C93.384254,94.166435 92.9010206,94.2349982 92.0970162,94.2296382 C92.0718622,94.2296382 92.0501698,94.2303082 92.0254774,94.2303082 C91.2990119,94.2126649 90.6403929,94.2434849 90.5446232,94.3439847 C90.5310077,94.356268 90.5199308,94.368998 90.511623,94.3821747 C90.5007768,94.3995947 90.4959306,94.417908 90.4933922,94.4364446 C90.221083,94.5999244 90.1996213,94.8835574 90.3821608,95.3686367 C90.3890839,95.4508233 90.4624689,95.6046997 90.6108543,95.885206 C90.6530853,95.9716359 90.6978548,96.0611925 90.7472397,96.1565557 L91.0287797,96.701265 C91.0952416,96.8381681 91.1252417,96.957428 91.071703,97.1771877 C90.9293176,97.5499305 90.6122389,98.2418163 90.2120829,99.0431352 C90.0115434,99.4297247 89.7696959,99.8897908 89.4805405,100.439413 L87.5919149,104.027259 C85.583981,107.832184 83.8628947,110.934726 83.7615865,110.95103 C83.6108934,110.95103 82.4870411,108.850136 80.4680302,104.813168 C80.392799,104.658175 80.3154909,104.500055 80.2351828,104.337692 C80.184644,104.238755 80.1345669,104.141382 80.0847204,104.045125 C79.484948,102.840244 78.8150213,101.484835 78.0754019,99.9775607 C76.3833927,96.5176852 75.6846197,95.1727736 75.2828483,94.6809943 C75.2694636,94.405848 74.5072287,94.2403582 73.1692215,94.2307549 C72.4330636,94.2081982 71.710752,94.2341049 71.4610584,94.3276814 C71.3092114,94.3765914 71.1910569,94.6050611 71.1910569,94.8174508 C71.1910569,94.9905339 73.7512246,100.097937 76.3464694,105.185464 C76.4556239,105.40634 76.5705476,105.63548 76.6917021,105.87266 C76.7558563,105.995269 76.8193181,106.115646 76.8823185,106.234459 C79.245639,110.856113 81.4931127,115.176937 81.7031138,115.425284 C81.804422,115.53963 82.108116,115.621147 82.3947329,115.58854 C82.8841971,115.53963 83.0023516,115.376151 84.3521281,112.845117 C85.1452863,111.359282 87.1532202,107.603491 88.8066907,104.484421 C89.018538,104.087112 89.2257699,103.699182 89.426771,103.324653 C89.6196951,102.967097 90.0805438,102.115751 90.6122389,101.137106 C90.6330083,101.097129 90.6535469,101.058493 90.6740854,101.019186 C91.1614727,100.128087 91.5424748,99.4466981 91.7561682,99.0871319 C91.8553995,98.9294587 91.9243999,98.8300755 91.9520924,98.8084122 C92.0843238,98.943752 93.9609494,102.658674 96.1802691,107.162631 L98.8678221,112.608384 C98.866899,112.611064 98.8632067,112.613744 98.8632067,112.616647 C98.8632067,112.649254 99.2005931,113.351413 99.6224416,114.151392 C99.6734418,114.250105 99.7202882,114.340779 99.7648269,114.426315 L100.314291,115.53963 L100.31683,115.53963 L100.36483,115.63745 L100.722524,115.610204 C100.792909,115.618914 100.872525,115.620924 100.965987,115.621147 C100.968295,115.621147 100.970141,115.621147 100.972218,115.621147 L100.980064,115.621147 L100.989295,115.621147 L101.579837,115.621147 L101.620222,115.5403 L101.630376,115.53963 L102.125378,114.542002 C102.165763,114.466068 102.208456,114.385669 102.25484,114.298569 C102.458149,113.899026 102.59615,113.620083 102.679689,113.42556 L102.929613,112.926857 C102.988229,112.806704 103.045691,112.689007 103.10246,112.572428 L103.672002,111.424496 C104.170005,110.41704 104.640084,109.489315 105.01624,108.768396 C105.435088,107.975787 105.742475,107.433088 105.855783,107.297748 C105.981553,107.337278 106.945712,109.156995 108.058949,111.408192 L110.100806,115.53963 L110.111421,115.5403 L110.151345,115.621147 L110.168191,115.621147 L110.741886,115.621147 L110.758963,115.621147 C110.882195,115.621147 110.97958,115.62673 111.075811,115.59725 C111.076504,115.597027 111.077196,115.597027 111.077427,115.596804 C111.335197,115.56643 111.462121,115.390891 111.791661,114.763101 C111.898046,114.568578 112.023355,114.330059 112.176125,114.037269 C112.191817,114.006672 112.207971,113.974736 112.223664,113.943916 C112.70782,113.015074 113.417209,111.573682 114.521445,109.334322 C115.609528,107.117741 116.301147,105.70985 116.719765,104.833268 C117.352768,103.539946 117.912617,102.390228 118.291543,101.601862 C118.834776,100.48475 119.32101,99.480198 119.701781,98.687589 L121.355251,95.2094003 L124.206882,95.2094003 L127.041436,95.2094003 L127.041436,102.70468 L127.041436,105.055931 L127.041436,109.905831 L127.060359,109.905831 C127.085283,112.918594 127.130744,115.004971 127.176437,115.082244 C127.648824,115.80093 130.820995,115.80093 131.293613,115.082244 C131.348767,114.988891 131.403921,111.957145 131.422152,107.89963 L131.428614,107.897397 L131.428614,105.055931 L131.428614,104.190069 C131.473152,103.03767 131.473845,101.611912 131.428614,100.51557 L131.428614,95.2094003 L134.769478,95.1767936 L134.912325,95.1745603 C135.164557,95.1859503 135.583405,95.1794736 136.237409,95.1604903 L138.093496,95.1276604 L138.093496,94.7196309 L138.093496,94.3113781 L137.361261,94.3071348 Z" id="Fill-1" fill="url(#linearGradient-8)"></path>
                                        </g>
                                    </g>
                                </g>
                            </g>
                        </g>
                    </g>
                </g>
            </g>
        </g>
    </g>
</svg>