<?xml version="1.0" encoding="utf-8"?>
<!-- Generator: Adobe Illustrator 20.1.0, SVG Export Plug-In . SVG Version: 6.00 Build 0)  -->
<svg version="1.1" id="Layer_1" xmlns="http://www.w3.org/2000/svg" xmlns:xlink="http://www.w3.org/1999/xlink" x="0px" y="0px"
	 viewBox="0 0 142 142" style="enable-background:new 0 0 142 142;" xml:space="preserve">
<style type="text/css">
	.st0{fill:#FFD770;}
	.st1{fill:none;stroke:#FFD770;stroke-width:3;}
</style>
<title>Group 13</title>
<desc>Created with Sketch.</desc>
<g id="Group-13">
	<g id="Group-58" transform="translate(9.000000, 9.000000)">
		<circle id="Oval-3" class="st0" cx="62" cy="22" r="1"/>
		<circle id="Oval-3_1_" class="st0" cx="62" cy="102" r="1"/>
		<circle id="Oval-3_2_" class="st0" cx="62" cy="22" r="1"/>
		<circle id="Oval-3_3_" class="st0" cx="62" cy="102" r="1"/>
		
			<ellipse id="Oval-3_4_" transform="matrix(0.2588 -0.9659 0.9659 0.2588 31.0596 87.2036)" class="st0" cx="72.4" cy="23.4" rx="1" ry="1"/>
		
			<ellipse id="Oval-3_5_" transform="matrix(0.2588 -0.9659 0.9659 0.2588 -58.9279 124.4776)" class="st0" cx="51.6" cy="100.6" rx="1" ry="1"/>
		<ellipse id="Oval-3_6_" transform="matrix(0.5 -0.866 0.866 0.5 17.3064 84.6936)" class="st0" cx="82" cy="27.4" rx="1" ry="1"/>
		
			<ellipse id="Oval-3_7_" transform="matrix(0.5 -0.866 0.866 0.5 -62.6936 84.6936)" class="st0" cx="42" cy="96.6" rx="1" ry="1"/>
		
			<ellipse id="Oval-3_8_" transform="matrix(0.7071 -0.7071 0.7071 0.7071 2.603 73.7157)" class="st0" cx="90.3" cy="33.7" rx="1" ry="1"/>
		
			<ellipse id="Oval-3_9_" transform="matrix(0.7071 -0.7071 0.7071 0.7071 -53.9655 50.2843)" class="st0" cx="33.7" cy="90.3" rx="1" ry="1"/>
		
			<ellipse id="Oval-3_10_" transform="matrix(0.866 -0.5 0.5 0.866 -8.0526 53.9474)" class="st0" cx="96.6" cy="42" rx="1" ry="1"/>
		
			<ellipse id="Oval-3_11_" transform="matrix(0.866 -0.5 0.5 0.866 -37.3346 24.6654)" class="st0" cx="27.4" cy="82" rx="1" ry="1"/>
		
			<ellipse id="Oval-3_12_" transform="matrix(0.9659 -0.2588 0.2588 0.9659 -9.9382 27.8066)" class="st0" cx="100.6" cy="51.6" rx="1" ry="1"/>
		
			<ellipse id="Oval-3_13_" transform="matrix(0.9659 -0.2588 0.2588 0.9659 -17.9302 8.5121)" class="st0" cx="23.4" cy="72.4" rx="1" ry="1"/>
		<circle id="Oval-3_14_" class="st0" cx="102" cy="62" r="1"/>
		<circle id="Oval-3_15_" class="st0" cx="22" cy="62" r="1"/>
	</g>
	<polyline id="Shape" class="st1" points="81.3,61.6 68,75.7 61,69.9 	"/>
</g>
</svg>
